<?xml version="1.0" encoding="UTF-8"?>
<svg width="135px" height="122px" viewBox="0 0 135 122" version="1.1" xmlns="http://www.w3.org/2000/svg" xmlns:xlink="http://www.w3.org/1999/xlink">
    <!-- Generator: Sketch 48.2 (47327) - http://www.bohemiancoding.com/sketch -->
    <title>CSFi Winner</title>
    <desc>Created with Sketch.</desc>
    <defs></defs>
    <g id="Homepage" stroke="none" stroke-width="1" fill="none" fill-rule="evenodd" transform="translate(-325.000000, -1417.000000)">
        <g id="Feel-confident" transform="translate(193.000000, 860.000000)">
            <g id="CSFi-Winner" transform="translate(132.000000, 557.000000)">
                <path d="M124.179358,75.0767543 C124.713786,75.3493265 125.675057,75.736897 126.824821,75.736897 C128.112785,75.736897 129.299286,75.2632973 130.350211,74.3283876 C133.494242,71.5333151 134.699548,66.9395291 134.916468,64.6658991 L135,63.786294 L134.298508,64.3195876 C133.018854,65.2918058 131.642986,65.5626223 130.186647,65.850118 C128.78585,66.1257627 127.34438,66.4101859 125.91297,67.3270996 C126.18237,65.5393593 126.372176,63.8494992 126.489382,62.1982644 C126.789834,62.2575193 127.20312,62.3145795 127.683318,62.3145795 C129.020701,62.3145795 130.894261,61.8747769 132.225084,59.7811061 C134.484815,56.2280106 134.389037,51.4784063 133.975752,49.2324286 L133.816123,48.3637966 L133.286943,49.0695876 C132.322173,50.3565148 131.073133,50.9947113 129.750182,51.6702164 C128.60829,52.2535474 127.434035,52.8531185 126.388794,53.8973204 C126.239224,52.2592534 126.024054,50.6238199 125.745469,49.0191112 C126.924097,48.9572228 129.662714,48.4590433 130.718888,45.2645493 C132.041839,41.2633117 130.787988,36.6822545 129.838962,34.6065796 L129.472472,33.8037863 L129.131785,34.6179916 C128.510763,36.1033128 127.455902,37.0303218 126.338938,38.0121964 C125.412216,38.8264017 124.459692,39.6634311 123.713154,40.8564284 C123.211964,39.331604 122.642111,37.8203863 122.014092,36.3486717 C123.128869,36.0317681 125.705671,34.9441127 126.051606,31.6157466 C126.486758,27.4235767 124.28257,23.2195559 122.911512,21.3967016 L122.381457,20.6917885 L122.222703,21.5604205 C121.934496,23.1449387 121.101803,24.2769255 120.220127,25.47519 C119.459595,26.5097355 118.677633,27.5732501 118.20793,28.9760534 C117.013995,27.0403955 115.699791,25.165748 114.290247,23.3876641 C115.36304,22.8736832 117.662569,21.3804614 117.467515,18.0797476 C117.219544,13.8717764 114.365032,10.0825394 112.717139,8.50679974 L112.079936,7.89713332 L112.064192,8.78068875 C112.035327,10.3906646 111.396375,11.6424778 110.719811,12.9675915 C110.002575,14.3712727 109.264347,15.8170907 109.197434,17.768111 C108.272025,16.8617315 107.379416,16.0391866 106.48637,15.2701905 C106.112445,14.9484587 105.738957,14.6407725 105.379027,14.3497654 C106.26114,13.5926203 108.148695,11.51914 107.04835,8.3338634 C105.672482,4.35106061 101.90087,1.48093196 99.8891103,0.413467073 L99.1115215,0 L99.3345644,0.854147479 C99.7421643,2.41189126 99.4675154,3.79187054 99.1762476,5.25261196 C98.8959133,6.65936565 98.6077069,8.10693933 98.9085961,9.7871431 C97.6254434,9.00234573 96.3147383,8.26056297 94.9987852,7.57540151 C95.1562272,6.32051577 95.0845036,3.80459936 92.4888964,2.11561708 C91.5359347,1.49541647 90.4583313,1.19431413 89.1926721,1.19431413 C88.235337,1.19431413 87.2784392,1.36066659 86.3534671,1.52087411 C85.4577968,1.67625345 84.6115458,1.82329323 83.7932844,1.82329323 C82.9483454,1.82329323 82.2674085,1.66615819 81.6507605,1.32818616 L80.7362846,0.828250921 L81.1040867,1.80573624 C82.0701686,4.37476255 84.5109578,7.83919526 88.210846,9.14806873 C89.1743039,9.48911323 90.1342631,9.66204956 91.0631712,9.66204956 C91.9251664,9.66204956 92.7784149,9.50886484 93.5428835,9.21785776 C94.1988921,9.54792914 94.7376938,9.83103557 95.2301375,10.1044857 C93.4606638,10.4951287 92.2089995,11.3975579 90.9927596,12.2749683 C89.7874532,13.1436003 88.6494971,13.9648285 87.0676418,14.2325725 L86.1995238,14.3796123 L86.8944555,14.9212454 C88.4828709,16.1590131 92.2072501,18.2535618 96.0925701,18.2535618 C96.4100782,18.2535618 96.7267117,18.2395162 97.0332864,18.211425 C100.243355,17.919979 101.396618,15.4979925 101.767481,14.3387923 C102.962729,15.2197142 104.00622,16.0462094 104.945187,16.8555866 C105.2487,17.1176246 105.548715,17.3862465 105.843044,17.6553074 C105.749891,17.6509181 105.6563,17.6482846 105.561835,17.6482846 C105.429321,17.6482846 105.293309,17.6531128 105.157734,17.6614523 C102.797415,17.8128814 101.275475,18.8500604 99.8033918,19.8538812 C98.5753438,20.6904717 97.4163954,21.4809751 95.8275426,21.7065824 L94.9563633,21.8303592 L95.6364255,22.390866 C97.2523932,23.7199301 101.048496,25.9698581 105.028719,25.9698581 C105.2487,25.9698581 105.469994,25.9628353 105.685602,25.9487897 C108.776277,25.7508347 110.023568,23.5180247 110.469216,22.3390729 C111.738811,23.7747956 112.930998,25.2680175 114.028719,26.7941587 C114.017785,26.7910862 114.005977,26.7884527 113.995043,26.7858191 C113.363089,26.6379015 112.749502,26.5659179 112.120608,26.5659179 C110.673454,26.5659179 109.434909,26.9543662 108.237038,27.3309636 C107.103455,27.6864926 106.033286,28.022709 104.840225,28.022709 C104.520968,28.022709 104.212644,27.999007 103.89776,27.9507253 L103.027893,27.8159754 L103.51815,28.5498575 C104.785558,30.4468901 108.022304,33.9130785 112.111862,34.872129 C112.574566,34.9805434 113.032898,35.0358479 113.473735,35.0358479 C115.733466,35.0358479 117.125516,33.6264607 117.762282,32.7718743 C118.466398,34.0658243 119.034939,35.204395 119.53263,36.3157524 C119.799845,36.9131289 120.068371,37.5504476 120.343457,38.2439486 C120.248992,38.1930333 120.15234,38.1438738 120.053501,38.0969088 C118.894553,37.5464972 117.710676,37.2901652 116.32781,37.2901652 C115.635502,37.2901652 114.962,37.3516147 114.310802,37.4113084 C113.665727,37.4696854 113.056514,37.5254289 112.435492,37.5254289 C111.491278,37.5254289 110.698382,37.39024 109.938724,37.098794 L109.116527,36.7832072 L109.441907,37.6039964 C110.282472,39.7266363 112.718014,43.7998575 116.514554,45.6033991 C117.303076,45.9778019 118.102532,46.1678563 118.891054,46.1678563 C120.568249,46.1678563 121.821226,45.3229263 122.48773,44.7382786 C122.5354,44.9252605 122.583507,45.1131203 122.631177,45.3040525 C122.67185,45.5467779 122.730453,45.7837972 122.809612,46.0269615 C123.183974,47.6062126 123.490986,49.2205777 123.725837,50.8428434 C123.604694,50.7317954 123.476991,50.6242589 123.342728,50.5206726 C121.470917,49.0700265 119.644589,48.8404689 117.879051,48.618373 C116.406531,48.4327078 115.015793,48.2575768 113.674037,47.3748993 L112.938432,46.8903264 L113.081005,47.7620309 C113.450119,50.0159092 114.961563,54.517521 118.285777,57.0935701 C119.294281,57.8748561 120.392876,58.2707662 121.551387,58.2707662 C122.707274,58.2707662 123.682103,57.8673944 124.281258,57.5417122 C124.324117,59.6902487 124.234462,61.839224 124.014043,63.9544022 C123.919141,63.8069235 123.816366,63.6620783 123.705282,63.5189889 C122.252442,61.6456582 120.541134,60.9670806 118.885806,60.3100104 C117.506001,59.7622323 116.202731,59.2456179 115.122504,58.0548152 L114.530346,57.4012563 L114.452063,58.2808614 C114.249575,60.5562471 114.595947,65.2935615 117.17581,68.6197329 C118.536809,70.373676 120.214005,70.7419339 121.3817,70.7419339 C121.973857,70.7419339 122.49429,70.6501986 122.883959,70.5510016 C122.395452,72.5529372 121.81554,74.5052743 121.121483,76.4813133 C121.089995,76.3974787 121.055882,76.3136441 121.02002,76.2298095 C120.086739,74.0487926 118.60241,72.9571869 117.167064,71.9015729 C115.970067,71.0215289 114.839545,70.1897666 114.094319,68.7632613 L113.686282,67.9810975 L113.388454,68.8124208 C112.619175,70.9618351 111.759804,75.6333108 113.417319,79.5068213 C114.687351,82.4748302 117.352058,82.8189472 118.471209,82.8246532 C117.675689,84.4109271 116.766898,85.997201 115.758832,87.5584561 C115.475436,85.5108724 114.518101,84.1207978 113.58963,82.773299 C112.745566,81.5482601 111.948734,80.3912546 111.710384,78.7988358 L111.57962,77.9253756 L111.027261,78.6136095 C109.599349,80.3916935 107.263084,84.5232918 107.56616,88.7277516 C107.796637,91.9345355 110.153457,93.1393838 111.316342,93.5409999 C110.291219,94.7484818 109.206181,95.9322617 108.084844,97.0651264 C107.913844,97.2376238 107.737159,97.4096822 107.5596,97.5795461 C107.757714,95.3577092 107.046164,93.7319321 106.357355,92.1579481 C105.760824,90.794648 105.197531,89.506404 105.264882,87.8977449 L105.301618,87.0146284 L104.629428,87.5847916 C102.890568,89.0582619 99.8152,92.6692954 99.3166335,96.8553203 C98.9387725,100.024357 100.996453,101.657596 102.064872,102.282185 C100.507945,103.453237 98.921279,104.530358 97.3298022,105.49687 C97.335925,105.478874 97.3420477,105.460878 97.3472958,105.443321 C98.0728412,103.183737 97.66874,101.381951 97.2781962,99.6389808 C96.9523786,98.1861401 96.6449293,96.8136225 97.0179795,95.2475391 L97.2222168,94.3885635 L96.4538121,94.8191486 C94.4665436,95.9318228 90.7592206,98.8853471 89.4716944,102.897558 C88.5012391,105.921749 90.1884931,107.915345 91.1213373,108.740962 C90.076097,109.215879 89.1624957,109.603011 88.2834443,109.944055 C87.49361,110.250425 86.6604791,110.547577 85.7188882,110.857896 C85.7578114,110.792497 85.7962972,110.726658 85.833471,110.659063 C86.9836727,108.585144 86.9381894,106.739027 86.8935808,104.953042 C86.856407,103.464649 86.8214199,102.058334 87.4914233,100.595398 L87.8592254,99.7926045 L87.0217212,100.064299 C84.8560183,100.766139 80.6461927,102.9375 78.6038194,106.620956 C77.1562272,109.23168 78.1896594,111.406991 78.9357598,112.471822 C77.8082997,112.692163 76.6690315,112.865099 75.5415715,112.98712 C73.8630643,113.168396 72.0419845,113.25662 69.8154915,113.264082 C69.6873512,113.226773 69.5600855,113.208338 69.4288838,113.208338 L69.3947714,113.208777 C68.7641285,113.2237 68.1295495,113.236868 67.4936586,113.247841 C66.8704505,113.236868 66.2363089,113.2237 65.6052286,113.208777 L65.5715535,113.208338 C65.4399145,113.208338 65.3126488,113.226773 65.1840711,113.264082 C62.9580155,113.25662 61.1369357,113.168396 59.4584285,112.98712 C58.3309685,112.865099 57.1917003,112.692163 56.0646776,112.471822 C56.8103406,111.406991 57.8442101,109.23168 56.3966179,106.620956 C54.3538073,102.9375 50.1439817,100.766139 47.9782788,100.064299 L47.1407746,99.7926045 L47.5085767,100.595398 C48.1785801,102.058334 48.143593,103.464649 48.1068565,104.953042 C48.0622479,106.739027 48.0163273,108.585144 49.166529,110.659063 C49.2037028,110.726658 49.2417513,110.792497 49.2811118,110.857896 C48.3395209,110.547577 47.50639,110.250425 46.7165557,109.944055 C45.8379416,109.603011 44.923903,109.215879 43.8786627,108.740962 C44.8115069,107.915345 46.4987609,105.921749 45.5283056,102.897558 C44.2412168,98.8853471 40.5338938,95.9318228 38.5461879,94.8191486 L37.7777832,94.3885635 L37.9820205,95.2475391 C38.3550707,96.8136225 38.0476214,98.1861401 37.7222411,99.6389808 C37.33126,101.381951 36.9275961,103.183737 37.6522669,105.443321 C37.6583896,105.460878 37.664075,105.478874 37.6697604,105.49687 C36.078721,104.530358 34.492055,103.453237 32.9355654,102.282185 C34.0039846,101.657596 36.0612275,100.024357 35.6833665,96.8553203 C35.1852374,92.6692954 32.1098693,89.0582619 30.3710093,87.5847916 L29.6983818,87.0146284 L29.7355557,87.8977449 C29.8029059,89.506404 29.2391759,90.7942091 28.6426454,92.1579481 C27.9538364,93.7319321 27.2422858,95.3577092 27.4404004,97.5795461 C27.2628408,97.4096822 27.0861558,97.2376238 26.9151562,97.0651264 C25.7938189,95.9318228 24.7087808,94.7484818 23.6836581,93.5409999 C24.8465426,93.1393838 27.2033627,91.9345355 27.4338403,88.7277516 C27.7369163,84.5232918 25.4006511,80.3916935 23.9727392,78.6136095 L23.42038,77.9253756 L23.2896156,78.7988358 C23.0512659,80.3912546 22.2539968,81.5482601 21.4103698,82.773299 C20.4823364,84.1207978 19.5245639,85.5108724 19.2411682,87.5584561 C18.2331017,85.996762 17.3243112,84.4104881 16.5292288,82.8246532 C17.6483794,82.8189472 20.3126488,82.4748302 21.5826814,79.5068213 C23.2401963,75.6333108 22.3803878,70.9618351 21.6115458,68.8124208 L21.3137179,67.9810975 L20.9052432,68.7632613 C20.1604548,70.1897666 19.0299334,71.0215289 17.8333738,71.9015729 C16.3975898,72.9571869 14.9132611,74.0487926 13.9799796,76.2298095 C13.9441178,76.3136441 13.9104427,76.3974787 13.8785169,76.4813133 C13.1844599,74.5057132 12.6045483,72.5529372 12.1160406,70.5510016 C12.5052724,70.6501986 13.0261432,70.7419339 13.6183002,70.7419339 C14.7859954,70.7419339 16.463628,70.373676 17.8241897,68.6197329 C20.40449,65.2935615 20.7504252,60.5562471 20.5483746,58.2808614 L20.4700909,57.4012563 L19.8774965,58.0548152 C18.7972691,59.2456179 17.4944361,59.7622323 16.1141941,60.3100104 C14.4593032,60.9670806 12.7479955,61.6456582 11.2951553,63.51855 C11.1840711,63.6620783 11.0812965,63.8069235 10.9859566,63.9544022 C10.7655377,61.839224 10.6763205,59.6902487 10.7183051,57.5417122 C11.3178969,57.8673944 12.2927256,58.2707662 13.4486127,58.2707662 C14.6071238,58.2707662 15.7061568,57.8748561 16.7137859,57.0935701 C20.0384372,54.517521 21.5498809,50.0154703 21.9189951,47.7620309 L22.062005,46.8903264 L21.325526,47.3748993 C19.9842072,48.2575768 18.5934691,48.4327078 17.1209485,48.618373 C15.3554109,48.8404689 13.529083,49.0700265 11.657272,50.5206726 C11.5230089,50.6246978 11.3957432,50.7317954 11.274163,50.8428434 C11.509014,49.2205777 11.816026,47.6057737 12.1903883,46.0269615 C12.269984,45.7837972 12.3281501,45.5467779 12.3692599,45.3040525 C12.4169299,45.1131203 12.4645998,44.9248216 12.5122698,44.7382786 C13.1783371,45.3229263 14.4317508,46.1678563 16.1093834,46.1678563 C16.897031,46.1678563 17.6964867,45.9778019 18.4854463,45.6033991 C22.2824238,43.7998575 24.7175276,39.7266363 25.5585305,37.6039964 L25.8834734,36.7832072 L25.0612761,37.098794 C24.3020555,37.39024 23.5087225,37.5254289 22.5640702,37.5254289 C21.9430487,37.5254289 21.3338355,37.4696854 20.6887604,37.4113084 C20.0379999,37.3516147 19.3644978,37.2901652 18.6721901,37.2901652 C17.2897614,37.2901652 16.1058846,37.5464972 14.9460615,38.0969088 C14.8476602,38.1438738 14.7510083,38.1930333 14.6569804,38.2439486 C14.9320667,37.5500086 15.2001555,36.91269 15.4673696,36.3157524 C15.9576267,35.2206352 16.5392876,34.0566069 17.2381554,32.7718743 C17.8744837,33.6264607 19.2669712,35.0358479 21.526702,35.0358479 C21.9675397,35.0358479 22.4254337,34.9805434 22.8881384,34.872129 C26.9776957,33.9130785 30.2144419,30.4468901 31.4818504,28.5498575 L31.9721075,27.8159754 L31.1022401,27.9507253 C30.7921668,27.9985681 30.4746586,28.022709 30.1602119,28.022709 C28.9667136,28.022709 27.8961077,27.6864926 26.7625249,27.3309636 C25.5650906,26.9543662 24.3265465,26.5659179 22.8793916,26.5659179 C22.2504981,26.5659179 21.6373488,26.6379015 21.0049565,26.7858191 C20.994023,26.7884527 20.9822149,26.7910862 20.9712814,26.7941587 C22.0690024,25.2680175 23.2616259,23.7747956 24.5307838,22.3390729 C24.9764323,23.5180247 26.2237232,25.7508347 29.3148355,25.9487897 C29.5304437,25.9628353 29.7512999,25.9698581 29.9717187,25.9698581 C33.9510666,25.9698581 37.7476068,23.7199301 39.3631372,22.390866 L40.0440741,21.8303592 L39.1724574,21.7065824 C37.584042,21.4809751 36.4246562,20.6904717 35.1970455,19.8538812 C33.724525,18.8500604 32.2021478,17.8128814 29.8422664,17.6614523 C29.7045046,17.6526738 29.5698042,17.6482846 29.4381651,17.6482846 C29.3436999,17.6482846 29.2501093,17.6509181 29.1569561,17.6553074 C29.450848,17.3862465 29.7517372,17.1176246 30.0552505,16.8555866 C30.9942174,16.0462094 32.0377083,15.2192753 33.2325186,14.3387923 C33.6033821,15.4979925 34.7562078,17.919979 37.9667136,18.211425 C38.2737256,18.2395162 38.5903591,18.2535618 38.9074299,18.2535618 C42.7927499,18.2535618 46.5171291,16.1590131 48.1055445,14.9212454 L48.8009136,14.3796123 L47.9327956,14.2325725 C46.3505029,13.9648285 45.2125468,13.1436003 44.0072404,12.2749683 C42.7910005,11.3975579 41.5397736,10.4955676 39.7698625,10.1044857 C40.2627436,9.83103557 40.8011079,9.54792914 41.4571165,9.21785776 C42.2215851,9.50886484 43.0748336,9.66204956 43.9368288,9.66204956 C44.8661743,9.66204956 45.8256961,9.48911323 46.7895913,9.14806873 C50.4890422,7.83919526 52.9298314,4.37476255 53.8959133,1.80573624 L54.2637154,0.828250921 L53.3492395,1.32818616 C52.7325915,1.66615819 52.0516546,1.82329323 51.2067156,1.82329323 C50.3884542,1.82329323 49.5422032,1.67625345 48.6465329,1.52087411 C47.7215608,1.36066659 46.764663,1.19431413 45.8073279,1.19431413 C44.542106,1.19431413 43.463628,1.49541647 42.5111036,2.11561708 C39.9154964,3.80459936 39.8437728,6.32051577 40.0007775,7.57540151 C38.6852617,8.26056297 37.3749939,9.00234573 36.0918412,9.7871431 C36.3922931,8.10693933 36.1036494,6.65936565 35.8237524,5.25261196 C35.5329219,3.79187054 35.2578357,2.41189126 35.6649983,0.854147479 L35.8889159,0 L35.1108897,0.413467073 C33.0991302,1.48093196 29.3275183,4.35149954 27.9516497,8.3338634 C26.8513047,11.5195789 28.73886,13.5926203 29.6214102,14.3497654 C29.2614801,14.6403336 28.8879926,14.9480198 28.5136304,15.2701905 C27.6205841,16.0391866 26.7279751,16.8617315 25.8025657,17.768111 C25.7356528,15.8170907 24.9974246,14.3712727 24.2806259,12.9675915 C23.6036251,11.6424778 22.9642354,10.3906646 22.9358083,8.78068875 L22.9200641,7.89713332 L22.2828612,8.50679974 C20.6349677,10.0825394 17.7804558,13.8713375 17.5324846,18.0797476 C17.3374314,21.3804614 19.63696,22.8736832 20.71019,23.3876641 C19.300209,25.165748 17.9860052,27.0403955 16.7920696,28.9760534 C16.3228048,27.5728111 15.5404053,26.5097355 14.7798727,25.47519 C13.8981972,24.2769255 13.065941,23.1449387 12.7768599,21.5604205 L12.6189805,20.6917885 L12.0884883,21.3967016 C10.7174304,23.2195559 8.51280432,27.4235767 8.94883133,31.6157466 C9.29432917,34.9441127 11.8715681,36.0317681 12.985908,36.3486717 C12.3574518,37.8203863 11.7884737,39.331604 11.2868458,40.8564284 C10.5403081,39.6634311 9.58734632,38.8264017 8.66106225,38.0121964 C7.54453569,37.0303218 6.4892366,36.1033128 5.86865251,34.6179916 L5.52752806,33.8037863 L5.16060061,34.6065796 C4.21201225,36.6822545 2.95859857,41.2633117 4.28111181,45.2645493 C5.33728558,48.4590433 8.07546528,48.9572228 9.25453132,49.0191112 C8.97594635,50.6238199 8.76077555,52.2592534 8.61164294,53.8973204 C7.56552797,52.8531185 6.39171,52.2535474 5.24981778,51.6702164 C3.92686719,50.9947113 2.67782691,50.3565148 1.713057,49.0695876 L1.18387677,48.3637966 L1.02381068,49.2324286 C0.611399971,51.4784063 0.515185383,56.2280106 2.77447884,59.7811061 C4.10573886,61.8747769 5.97929929,62.3145795 7.31668205,62.3145795 C7.79688031,62.3145795 8.2101657,62.2575193 8.51061762,62.1982644 C8.62782448,63.8499381 8.81806696,65.5393593 9.08703047,67.3270996 C7.65561981,66.4101859 6.21415035,66.1257627 4.81335342,65.850118 C3.35657709,65.5626223 1.98114583,65.2918058 0.701491812,64.3195876 L0,63.786294 L0.0839690947,64.6658991 C0.300451917,66.9395291 1.50619564,71.5333151 4.64978862,74.3283876 C5.70115166,75.2632973 6.88721512,75.736897 8.17517858,75.736897 C9.32538024,75.736897 10.2862141,75.3493265 10.8206424,75.0767543 C11.3008407,76.6191357 11.8689441,78.2010203 12.5118325,79.7864164 C12.5406968,79.8579611 12.5704359,79.928628 12.6001749,79.9988559 C11.6935711,79.678002 10.7515428,79.5270119 9.69274503,79.5270119 C8.98819185,79.5270119 8.30463093,79.5910949 7.64293697,79.6538611 C6.98824044,79.7148716 6.37028038,79.7732486 5.73963749,79.7732486 C4.80810535,79.7732486 4.02308178,79.6398155 3.26998396,79.3536366 L2.4469119,79.0402444 L2.7740415,79.8605946 C3.62116721,81.980601 6.06807911,86.0467994 9.86943,87.8393679 C10.6557656,88.2102593 11.45216,88.398558 12.2367462,88.398558 C14.0403324,88.398558 15.3567229,87.4140499 15.9733709,86.8368639 C16.5734001,87.8841383 17.1130764,88.7698883 17.6518781,89.5968225 C18.2344137,90.4887175 18.8882356,91.4104594 19.6785072,92.4498331 C19.4541523,92.4309593 19.22936,92.4217419 19.0023811,92.4217419 C17.5630983,92.4217419 16.3284902,92.8049232 15.1345546,93.1749367 C14.0040332,93.5260764 12.9360513,93.8574646 11.7482385,93.8574646 C11.4241703,93.8574646 11.1110355,93.8328848 10.7913407,93.7832863 L9.92191069,93.6476586 L10.4108557,94.3819796 C11.6752029,96.2816458 14.9058263,99.7535402 18.9936343,100.720052 C19.4585257,100.829784 19.9190437,100.885527 20.3620681,100.885527 C22.1625929,100.885527 23.4107585,99.9809032 24.1406774,99.2224413 C24.3195491,99.0363372 24.5784538,98.7264564 24.7831284,98.4336936 C24.7861898,98.4376439 24.7896885,98.4411553 24.7936246,98.4451056 C25.0236649,98.6930981 25.2541426,98.9410905 25.490743,99.1851327 C26.3501142,100.10073 27.3249429,101.017643 28.5153798,102.02717 C26.8075708,102.287014 25.5257301,103.044598 24.2797512,103.780674 C23.0009719,104.536942 21.7930415,105.251072 20.1932553,105.377044 L19.3159532,105.445955 L19.9601536,106.04772 C21.6242286,107.601075 25.5594052,110.229795 29.7556733,110.229795 C33.062831,110.225845 34.413334,107.818343 34.8576704,106.720153 C34.9600078,106.789503 35.0623451,106.857975 35.1651198,106.924253 C36.4950678,107.779278 37.9111716,108.607968 39.3854415,109.393205 C37.839448,109.98268 36.7618446,110.941731 35.7148549,111.874007 C34.6040138,112.862027 33.5548375,113.795619 32.008844,114.227082 L31.1612809,114.463663 L31.9086933,114.93024 C33.3475388,115.827841 36.7128626,117.346959 40.2010788,117.346959 C40.9393071,117.346959 41.6565431,117.278926 42.3331066,117.145493 C45.5628553,116.507735 46.4357841,113.894377 46.6680111,112.689529 C48.2153166,113.265837 49.8317217,113.784646 51.573643,114.263513 C50.3176053,115.118977 49.501968,116.19566 48.708635,117.242495 C47.810778,118.42847 46.9619029,119.547728 45.5283056,120.270198 L44.7410953,120.666547 L45.5646047,120.9795 C46.8617523,121.472851 49.090432,122 51.4564362,122 C53.2228485,122 54.8252588,121.71031 56.2186209,121.137952 C57.6010496,120.570861 58.5820011,119.634196 59.1343603,118.352975 L59.1422324,118.335418 L59.1479178,118.316983 L59.960931,115.755857 C61.4076486,115.859004 64.4493416,115.904214 65.4416638,115.916504 C65.4617814,115.919576 65.4810243,115.921332 65.5020166,115.921771 C65.8330823,115.929671 66.3425822,115.934061 66.9754118,115.934061 L67.5010933,115.933183 L68.0245882,115.934061 C68.6574178,115.934061 69.1669177,115.929671 69.4984207,115.921771 C69.520725,115.921332 69.5408426,115.919137 69.5613975,115.916065 C70.5213567,115.904653 73.585354,115.859443 75.0395063,115.755857 L75.8520822,118.316544 L75.8577676,118.335418 L75.8652024,118.352975 C76.4179989,119.634196 77.3989504,120.570861 78.7809417,121.137952 C80.1751786,121.71031 81.7775888,122 83.5435638,122 C85.909568,122 88.1386851,121.472851 89.4358326,120.9795 L90.2584674,120.666547 L89.4721318,120.270198 C88.0376598,119.547728 87.1896594,118.42847 86.291365,117.242495 C85.4984693,116.19566 84.6823947,115.118977 83.4259196,114.263513 C85.1687157,113.784646 86.7846834,113.265837 88.3319889,112.689529 C88.5642159,113.894816 89.4380193,116.508174 92.6668934,117.145493 C93.3434569,117.278926 94.0606929,117.346959 94.7984839,117.346959 C98.2871374,117.346959 101.652461,115.827841 103.091307,114.93024 L103.839156,114.463663 L102.991156,114.227082 C101.445163,113.795619 100.395986,112.862027 99.2851451,111.874007 C98.2381554,110.941731 97.160552,109.98268 95.6145585,109.393205 C97.0888284,108.607968 98.5049322,107.779278 99.8348802,106.924253 C99.9376549,106.857975 100.04043,106.789503 100.14233,106.720153 C100.586229,107.818343 101.934982,110.225845 105.232519,110.229795 C109.440595,110.229795 113.375771,107.601075 115.039846,106.04772 L115.684047,105.445955 L114.806307,105.377044 C113.206959,105.251072 111.998591,104.536942 110.720249,103.780674 C109.474707,103.044598 108.192429,102.287014 106.485058,102.02717 C107.675494,101.017643 108.65076,100.099852 109.514068,99.1803045 C109.745857,98.9415295 109.975898,98.693537 110.206375,98.4451056 C110.209874,98.4411553 110.213373,98.4376439 110.216872,98.4341325 C110.422421,98.7277731 110.683512,99.0398486 110.863696,99.2268305 C111.593178,99.9830978 112.840031,100.885527 114.638369,100.885527 C115.080956,100.885527 115.541474,100.829784 116.006366,100.720052 C120.094174,99.7535402 123.324797,96.2816458 124.589144,94.3819796 L125.078527,93.6476586 L124.208222,93.7832863 C123.893775,93.8324459 123.571456,93.8574646 123.251762,93.8574646 C122.063949,93.8574646 120.995967,93.5260764 119.865445,93.1749367 C118.671072,92.8049232 117.436902,92.4217419 115.998056,92.4217419 C115.77064,92.4217419 115.546285,92.4309593 115.32193,92.4498331 C116.111764,91.4104594 116.765586,90.4891564 117.348122,89.5968225 C117.887361,88.7698883 118.427037,87.8836993 119.026629,86.8368639 C119.643714,87.4140499 120.960105,88.398558 122.763691,88.398558 C123.54784,88.398558 124.344234,88.2102593 125.131007,87.8393679 C128.931921,86.0472384 131.37927,81.980601 132.225521,79.8605946 L132.553088,79.0402444 L131.730453,79.3536366 C130.976918,79.6398155 130.192332,79.7732486 129.2608,79.7732486 C128.62972,79.7732486 128.01176,79.7148716 127.357063,79.6538611 C126.695369,79.5910949 126.011371,79.5270119 125.307255,79.5270119 C124.248457,79.5270119 123.305992,79.678002 122.400262,79.9988559 C122.430001,79.928628 122.459303,79.8579611 122.488168,79.7864164 C123.131056,78.2014592 123.698722,76.6191357 124.179358,75.0767543" id="Fill-1" fill="#DDDDDD"></path>
                <path d="M46.4804688,74.5976562 L47.7050781,74.5976562 L48.90625,81.0195312 L48.9296875,81.0195312 L50.9570312,74.5976562 L51.8828125,74.5976562 L53.921875,81.0195312 L53.9453125,81.0195312 L55.1464844,74.5976562 L56.3417969,74.5976562 L54.7714844,83 L53.4296875,83 L51.4140625,76.6425781 L51.390625,76.6425781 L49.4101562,83 L48.0507812,83 L46.4804688,74.5976562 Z M57.7832031,75.4765625 L57.7832031,74.2402344 L59.0429688,74.2402344 L59.0429688,75.4765625 L57.7832031,75.4765625 Z M57.8300781,83 L57.8300781,76.6425781 L58.9960938,76.6425781 L58.9960938,83 L57.8300781,83 Z M60.9589844,83 L60.9589844,76.6425781 L62.0957031,76.6425781 L62.0957031,77.2519531 L62.1191406,77.2519531 C62.2871102,77.0292958 62.5312484,76.8417976 62.8515625,76.6894531 C63.1718766,76.5371086 63.5078107,76.4609375 63.859375,76.4609375 C64.554691,76.4609375 65.111326,76.6728494 65.5292969,77.0966797 C65.9472677,77.5205099 66.15625,78.0996057 66.15625,78.8339844 L66.15625,83 L64.9785156,83 L64.9785156,79.1738281 C64.9785156,78.0839789 64.5312545,77.5390625 63.6367188,77.5390625 C63.1796852,77.5390625 62.8125014,77.668944 62.5351562,77.9287109 C62.2578111,78.1884779 62.1191406,78.5468727 62.1191406,79.0039062 L62.1191406,83 L60.9589844,83 Z M68.0136719,83 L68.0136719,76.6425781 L69.1503906,76.6425781 L69.1503906,77.2519531 L69.1738281,77.2519531 C69.3417977,77.0292958 69.5859359,76.8417976 69.90625,76.6894531 C70.2265641,76.5371086 70.5624982,76.4609375 70.9140625,76.4609375 C71.6093785,76.4609375 72.1660135,76.6728494 72.5839844,77.0966797 C73.0019552,77.5205099 73.2109375,78.0996057 73.2109375,78.8339844 L73.2109375,83 L72.0332031,83 L72.0332031,79.1738281 C72.0332031,78.0839789 71.585942,77.5390625 70.6914062,77.5390625 C70.2343727,77.5390625 69.8671889,77.668944 69.5898438,77.9287109 C69.3124986,78.1884779 69.1738281,78.5468727 69.1738281,79.0039062 L69.1738281,83 L68.0136719,83 Z M75.4726562,82.2617188 C74.9218722,81.6484344 74.6464844,80.8339895 74.6464844,79.8183594 C74.6464844,78.8027293 74.9208957,77.9892609 75.4697266,77.3779297 C76.0185574,76.7665985 76.7167926,76.4609375 77.5644531,76.4609375 C78.4121136,76.4609375 79.1035129,76.7626923 79.6386719,77.3662109 C80.1738308,77.9697296 80.4414062,78.7871042 80.4414062,79.8183594 L80.4414062,80.1699219 L75.8359375,80.1699219 C75.8515626,80.736331 76.0097641,81.2060528 76.3105469,81.5791016 C76.6113296,81.9521503 77.0410128,82.1386719 77.5996094,82.1386719 C77.8652357,82.1386719 78.0996084,82.1025394 78.3027344,82.0302734 C78.5058604,81.9580075 78.6816399,81.847657 78.8300781,81.6992188 C78.9785164,81.5507805 79.0839841,81.4326176 79.1464844,81.3447266 C79.2089847,81.2568355 79.289062,81.1328133 79.3867188,80.9726562 L80.265625,81.6347656 C80.01953,82.0839866 79.6757835,82.4541001 79.234375,82.7451172 C78.7929665,83.0361343 78.2558625,83.1816406 77.6230469,83.1816406 C76.7441362,83.1816406 76.0273465,82.8750031 75.4726562,82.2617188 Z M75.8476562,79.2558594 L79.28125,79.2558594 C79.2578124,78.7675757 79.1054702,78.3535173 78.8242188,78.0136719 C78.5429673,77.6738264 78.1230497,77.5039062 77.5644531,77.5039062 C77.0292942,77.5039062 76.6132827,77.6855451 76.3164062,78.0488281 C76.0195298,78.4121112 75.8632813,78.8144509 75.8476562,79.2558594 Z M81.9414062,83 L81.9414062,76.6425781 L83.0546875,76.6425781 L83.0546875,77.3222656 L83.078125,77.3222656 C83.2070319,77.0761706 83.3916004,76.8828132 83.6318359,76.7421875 C83.8720715,76.6015618 84.1249987,76.53125 84.390625,76.53125 C84.6054698,76.53125 84.7929679,76.5722652 84.953125,76.6542969 L84.7480469,77.8027344 C84.5957024,77.7402341 84.4316415,77.7089844 84.2558594,77.7089844 C83.4863243,77.7089844 83.1015625,78.2285104 83.1015625,79.2675781 L83.1015625,83 L81.9414062,83 Z" id="Winner" fill="#999999"></path>
                <path d="M27.5976562,62.7285156 C27.5976562,61.3613213 27.9482387,60.3017616 28.6494141,59.5498047 C29.3505894,58.7978478 30.1972607,58.421875 31.1894531,58.421875 C32.0761763,58.421875 32.8095674,58.6894504 33.3896484,59.2246094 C33.9697295,59.7597683 34.3164057,60.4804642 34.4296875,61.3867188 L33.2050781,61.5859375 C32.9902333,60.2265557 32.318365,59.546875 31.1894531,59.546875 C30.5175748,59.546875 29.9609397,59.8173801 29.5195312,60.3583984 C29.0781228,60.8994168 28.8574219,61.6894479 28.8574219,62.7285156 C28.8574219,63.8418024 29.0742166,64.6738254 29.5078125,65.2246094 C29.9414084,65.7753934 30.5019497,66.0507812 31.1894531,66.0507812 C32.3574277,66.0507812 33.0136712,65.2988356 33.1582031,63.7949219 L34.4414062,64 C34.3632809,64.9765674 34.0361357,65.7509737 33.4599609,66.3232422 C32.8837862,66.8955107 32.1269578,67.1816406 31.1894531,67.1816406 C30.708982,67.1816406 30.2607443,67.0976571 29.8447266,66.9296875 C29.4287089,66.7617179 29.0507829,66.5078142 28.7109375,66.1679688 C28.3710921,65.8281233 28.1005869,65.3642608 27.8994141,64.7763672 C27.6982412,64.1884736 27.5976562,63.5058633 27.5976562,62.7285156 Z M36.0527344,67 L36.0527344,58.5976562 L41.203125,58.5976562 L41.203125,59.7167969 L37.2539062,59.7167969 L37.2539062,62.4765625 L40.8691406,62.4765625 L40.8691406,63.53125 L37.2539062,63.53125 L37.2539062,67 L36.0527344,67 Z M42.28125,64.1347656 L43.5410156,63.8828125 C43.6542974,64.6445351 43.8632797,65.1962874 44.1679688,65.5380859 C44.4726578,65.8798845 44.9726528,66.0507812 45.6679688,66.0507812 C46.2343778,66.0507812 46.6718735,65.9306653 46.9804688,65.6904297 C47.289064,65.4501941 47.4433594,65.14258 47.4433594,64.7675781 C47.4433594,64.3925763 47.3027358,64.0966808 47.0214844,63.8798828 C46.740233,63.6630849 46.1210985,63.4023453 45.1640625,63.0976562 C44.2539017,62.8085923 43.6044941,62.4785175 43.2158203,62.1074219 C42.8271465,61.7363263 42.6328125,61.2636747 42.6328125,60.6894531 C42.6328125,60.06445 42.8759741,59.5302757 43.3623047,59.0869141 C43.8486352,58.6435525 44.5078083,58.421875 45.3398438,58.421875 C46.1250039,58.421875 46.7900363,58.6171855 47.3349609,59.0078125 C47.8798855,59.3984395 48.2109369,59.9746056 48.328125,60.7363281 L47.1328125,61 C47.0273432,60.5351539 46.8388685,60.1767591 46.5673828,59.9248047 C46.2958971,59.6728503 45.8867215,59.546875 45.3398438,59.546875 C44.8437475,59.546875 44.4677747,59.6552724 44.2119141,59.8720703 C43.9560534,60.0888683 43.828125,60.3613265 43.828125,60.6894531 C43.828125,60.9863296 43.9560534,61.2246085 44.2119141,61.4042969 C44.4677747,61.5839853 45.0449174,61.820311 45.9433594,62.1132812 C46.9902396,62.4648455 47.7001934,62.8251935 48.0732422,63.1943359 C48.4462909,63.5634784 48.6328125,64.06445 48.6328125,64.6972656 C48.6328125,65.4082067 48.3662136,65.9999976 47.8330078,66.4726562 C47.299802,66.9453149 46.5742233,67.1816406 45.65625,67.1816406 C44.6640575,67.1816406 43.8837919,66.9238307 43.3154297,66.4082031 C42.7470675,65.8925755 42.4023444,65.1347706 42.28125,64.1347656 Z M50.1914062,67 L50.1914062,58.5976562 L51.3867188,58.5976562 L51.3867188,67 L50.1914062,67 Z M56.1210938,62.7285156 C56.1210938,61.3613213 56.4716762,60.3017616 57.1728516,59.5498047 C57.8740269,58.7978478 58.7206982,58.421875 59.7128906,58.421875 C60.5996138,58.421875 61.3330049,58.6894504 61.9130859,59.2246094 C62.493167,59.7597683 62.8398432,60.4804642 62.953125,61.3867188 L61.7285156,61.5859375 C61.5136708,60.2265557 60.8418025,59.546875 59.7128906,59.546875 C59.0410123,59.546875 58.4843772,59.8173801 58.0429688,60.3583984 C57.6015603,60.8994168 57.3808594,61.6894479 57.3808594,62.7285156 C57.3808594,63.8418024 57.5976541,64.6738254 58.03125,65.2246094 C58.4648459,65.7753934 59.0253872,66.0507812 59.7128906,66.0507812 C60.8808652,66.0507812 61.5371087,65.2988356 61.6816406,63.7949219 L62.9648438,64 C62.8867184,64.9765674 62.5595732,65.7509737 61.9833984,66.3232422 C61.4072237,66.8955107 60.6503953,67.1816406 59.7128906,67.1816406 C59.2324195,67.1816406 58.7841818,67.0976571 58.3681641,66.9296875 C57.9521464,66.7617179 57.5742204,66.5078142 57.234375,66.1679688 C56.8945296,65.8281233 56.6240244,65.3642608 56.4228516,64.7763672 C56.2216787,64.1884736 56.1210938,63.5058633 56.1210938,62.7285156 Z M64.4589844,67 L64.4589844,58.2402344 L65.6191406,58.2402344 L65.6191406,61.2753906 L65.6484375,61.2753906 C65.8085946,61.0449207 66.0498031,60.8515633 66.3720703,60.6953125 C66.6943375,60.5390617 67.0410138,60.4609375 67.4121094,60.4609375 C68.0918003,60.4609375 68.6396464,60.6689432 69.0556641,61.0849609 C69.4716818,61.5009786 69.6796875,62.0800744 69.6796875,62.8222656 L69.6796875,67 L68.5136719,67 L68.5136719,63.109375 C68.5136719,62.6289038 68.3974621,62.2470717 68.1650391,61.9638672 C67.932616,61.6806626 67.589846,61.5390625 67.1367188,61.5390625 C66.6874978,61.5390625 66.322267,61.6748033 66.0410156,61.9462891 C65.7597642,62.2177748 65.6191406,62.5703103 65.6191406,63.0039062 L65.6191406,67 L64.4589844,67 Z M71.1152344,65.3417969 C71.1152344,64.8066379 71.2773421,64.391603 71.6015625,64.0966797 C71.9257829,63.8017563 72.4765586,63.5566416 73.2539062,63.3613281 C73.9414097,63.185546 74.4072253,63.0341803 74.6513672,62.9072266 C74.895509,62.7802728 75.0175781,62.5927747 75.0175781,62.3447266 C75.0175781,62.0966784 74.913087,61.8906258 74.7041016,61.7265625 C74.4951161,61.5624992 74.1835958,61.4804688 73.7695312,61.4804688 C72.9765585,61.4804688 72.484376,61.8808554 72.2929688,62.6816406 L71.2734375,62.3183594 C71.3867193,61.7675754 71.6552713,61.3203142 72.0791016,60.9765625 C72.5029318,60.6328108 73.0585903,60.4609375 73.7460938,60.4609375 C74.488285,60.4609375 75.0859352,60.6503887 75.5390625,61.0292969 C75.9921898,61.408205 76.21875,61.9980429 76.21875,62.7988281 L76.21875,67 L75.1933594,67 L75.1933594,66.3261719 L75.1699219,66.3261719 C75.0800777,66.501954 74.874025,66.6884756 74.5517578,66.8857422 C74.2294906,67.0830088 73.8125026,67.1816406 73.3007812,67.1816406 C72.5742151,67.1816406 72.0283221,67.0078142 71.6630859,66.6601562 C71.2978497,66.3124983 71.1152344,65.8730495 71.1152344,65.3417969 Z M72.2578125,65.2714844 C72.2578125,65.8574248 72.6406212,66.1503906 73.40625,66.1503906 C73.9414089,66.1503906 74.3535142,66.0341808 74.6425781,65.8017578 C74.9316421,65.5693348 75.0761719,65.2851579 75.0761719,64.9492188 L75.0761719,63.5195312 L75.0527344,63.5195312 C75.0214842,63.5898441 74.9736331,63.6513669 74.9091797,63.7041016 C74.8447262,63.7568362 74.6962902,63.8291011 74.4638672,63.9208984 C74.2314442,64.0126958 73.9160176,64.1113276 73.5175781,64.2167969 C73.0214819,64.3535163 72.6875009,64.5019523 72.515625,64.6621094 C72.3437491,64.8222664 72.2578125,65.0253894 72.2578125,65.2714844 Z M78.0117188,67 L78.0117188,58.2402344 L79.2128906,58.2402344 L79.2128906,67 L78.0117188,67 Z M81.1289062,67 L81.1289062,58.2402344 L82.3300781,58.2402344 L82.3300781,67 L81.1289062,67 Z M84.6503906,66.2617188 C84.0996066,65.6484344 83.8242188,64.8339895 83.8242188,63.8183594 C83.8242188,62.8027293 84.0986301,61.9892609 84.6474609,61.3779297 C85.1962918,60.7665985 85.894527,60.4609375 86.7421875,60.4609375 C87.589848,60.4609375 88.2812473,60.7626923 88.8164062,61.3662109 C89.3515652,61.9697296 89.6191406,62.7871042 89.6191406,63.8183594 L89.6191406,64.1699219 L85.0136719,64.1699219 C85.029297,64.736331 85.1874985,65.2060528 85.4882812,65.5791016 C85.789064,65.9521503 86.2187472,66.1386719 86.7773438,66.1386719 C87.0429701,66.1386719 87.2773427,66.1025394 87.4804688,66.0302734 C87.6835948,65.9580075 87.8593743,65.847657 88.0078125,65.6992188 C88.1562507,65.5507805 88.2617184,65.4326176 88.3242188,65.3447266 C88.3867191,65.2568355 88.4667964,65.1328133 88.5644531,64.9726562 L89.4433594,65.6347656 C89.1972644,66.0839866 88.8535178,66.4541001 88.4121094,66.7451172 C87.9707009,67.0361343 87.4335969,67.1816406 86.8007812,67.1816406 C85.9218706,67.1816406 85.2050809,66.8750031 84.6503906,66.2617188 Z M85.0253906,63.2558594 L88.4589844,63.2558594 C88.4355468,62.7675757 88.2832045,62.3535173 88.0019531,62.0136719 C87.7207017,61.6738264 87.300784,61.5039062 86.7421875,61.5039062 C86.2070286,61.5039062 85.7910171,61.6855451 85.4941406,62.0488281 C85.1972641,62.4121112 85.0410157,62.8144509 85.0253906,63.2558594 Z M91.1191406,67 L91.1191406,60.6425781 L92.2558594,60.6425781 L92.2558594,61.2519531 L92.2792969,61.2519531 C92.4472665,61.0292958 92.6914046,60.8417976 93.0117188,60.6894531 C93.3320329,60.5371086 93.667967,60.4609375 94.0195313,60.4609375 C94.7148472,60.4609375 95.2714823,60.6728494 95.6894531,61.0966797 C96.107424,61.5205099 96.3164063,62.0996057 96.3164063,62.8339844 L96.3164063,67 L95.1386719,67 L95.1386719,63.1738281 C95.1386719,62.0839789 94.6914107,61.5390625 93.796875,61.5390625 C93.3398415,61.5390625 92.9726576,61.668944 92.6953125,61.9287109 C92.4179674,62.1884779 92.2792969,62.5468727 92.2792969,63.0039062 L92.2792969,67 L91.1191406,67 Z M97.7519531,63.8183594 C97.7519531,62.8027293 98.0224582,61.9892609 98.5634766,61.3779297 C99.1044949,60.7665985 99.7695273,60.4609375 100.558594,60.4609375 C101.292972,60.4609375 101.876951,60.7246067 102.310547,61.2519531 L102.333984,61.2519531 L102.333984,60.6425781 L103.464844,60.6425781 L103.464844,67.0585938 C103.464844,67.9804734 103.224612,68.6816382 102.744141,69.1621094 C102.263669,69.6425805 101.611332,69.8828125 100.787109,69.8828125 C100.138669,69.8828125 99.5947288,69.7285172 99.1552734,69.4199219 C98.7158181,69.1113266 98.4042978,68.7050806 98.2207031,68.2011719 L99.1582031,67.6621094 C99.3261727,68.0371112 99.5322253,68.328124 99.7763672,68.5351562 C100.020509,68.7421885 100.353514,68.8457031 100.775391,68.8457031 C101.248049,68.8457031 101.620116,68.7099623 101.891602,68.4384766 C102.163087,68.1669908 102.298828,67.7753932 102.298828,67.2636719 L102.298828,66.4375 L102.275391,66.4375 C101.900389,66.9335962 101.332035,67.1816406 100.570312,67.1816406 C99.7382771,67.1816406 99.0605495,66.8789093 98.5371094,66.2734375 C98.0136693,65.6679657 97.7519531,64.8496145 97.7519531,63.8183594 Z M99.4042969,62.1308594 C99.0800765,62.5292989 98.9179688,63.0927698 98.9179688,63.8212891 C98.9179688,64.5498083 99.0800765,65.1152324 99.4042969,65.5175781 C99.7285172,65.9199239 100.177732,66.1210938 100.751953,66.1210938 C101.201174,66.1210938 101.571288,65.987306 101.862305,65.7197266 C102.153322,65.4521471 102.298828,65.1347675 102.298828,64.7675781 L102.298828,62.9921875 C102.298828,62.6093731 102.157228,62.2695327 101.874023,61.9726562 C101.590819,61.6757798 101.216799,61.5273438 100.751953,61.5273438 C100.177732,61.5273438 99.7285172,61.7285136 99.4042969,62.1308594 Z M105.726562,66.2617188 C105.175778,65.6484344 104.900391,64.8339895 104.900391,63.8183594 C104.900391,62.8027293 105.174802,61.9892609 105.723633,61.3779297 C106.272464,60.7665985 106.970699,60.4609375 107.818359,60.4609375 C108.66602,60.4609375 109.357419,60.7626923 109.892578,61.3662109 C110.427737,61.9697296 110.695312,62.7871042 110.695312,63.8183594 L110.695312,64.1699219 L106.089844,64.1699219 C106.105469,64.736331 106.26367,65.2060528 106.564453,65.5791016 C106.865236,65.9521503 107.294919,66.1386719 107.853516,66.1386719 C108.119142,66.1386719 108.353515,66.1025394 108.556641,66.0302734 C108.759767,65.9580075 108.935546,65.847657 109.083984,65.6992188 C109.232423,65.5507805 109.33789,65.4326176 109.400391,65.3447266 C109.462891,65.2568355 109.542968,65.1328133 109.640625,64.9726562 L110.519531,65.6347656 C110.273436,66.0839866 109.92969,66.4541001 109.488281,66.7451172 C109.046873,67.0361343 108.509769,67.1816406 107.876953,67.1816406 C106.998042,67.1816406 106.281253,66.8750031 105.726562,66.2617188 Z M106.101563,63.2558594 L109.535156,63.2558594 C109.511719,62.7675757 109.359376,62.3535173 109.078125,62.0136719 C108.796874,61.6738264 108.376956,61.5039062 107.818359,61.5039062 C107.2832,61.5039062 106.867189,61.6855451 106.570313,62.0488281 C106.273436,62.4121112 106.117188,62.8144509 106.101563,63.2558594 Z" id="CFSI-Challenge" fill="#999999"></path>
                <path d="M47.1035156,39.3417969 C47.1686201,37.8769458 47.6406206,36.7376343 48.5195312,35.9238281 C49.3984419,35.110022 50.5442638,34.703125 51.9570312,34.703125 C53.330736,34.703125 54.4309854,35.0953737 55.2578125,35.8798828 C56.0846396,36.6643919 56.4980469,37.6588481 56.4980469,38.8632812 C56.4980469,39.3580754 56.4150399,39.8219379 56.2490234,40.2548828 C56.083007,40.6878277 55.9007171,41.0442694 55.7021484,41.3242188 C55.5035797,41.6041681 55.1975932,41.8938787 54.7841797,42.1933594 C54.3707662,42.49284 54.0403658,42.7158196 53.7929688,42.8623047 C53.5455717,43.0087898 53.1679713,43.2154935 52.6601562,43.4824219 C51.3124933,44.1920608 50.4986993,44.657551 50.21875,44.8789062 C50.0039052,45.0546884 49.8378912,45.2402334 49.7207031,45.4355469 C49.4667956,45.8066425 49.3398438,46.3404913 49.3398438,47.0371094 L56.5566406,47.0371094 L56.5566406,49 L47.1816406,49 L47.1816406,47.4960938 C47.1816406,46.2265562 47.448565,45.2207068 47.9824219,44.4785156 C48.4511742,43.8274707 49.4960856,43.0755251 51.1171875,42.2226562 C51.6510443,41.9427069 52.0042309,41.7555343 52.1767578,41.6611328 C52.3492847,41.5667313 52.6194643,41.4088553 52.9873047,41.1875 C53.3551451,40.9661447 53.5960281,40.7936204 53.7099609,40.6699219 C53.8238938,40.5462233 53.9671215,40.3769542 54.1396484,40.1621094 C54.3121753,39.9472646 54.4261065,39.7291678 54.4814453,39.5078125 C54.5367841,39.2864572 54.5644531,39.0358087 54.5644531,38.7558594 C54.5644531,38.1699189 54.3333356,37.6474632 53.8710938,37.1884766 C53.4088519,36.7294899 52.7513063,36.5 51.8984375,36.5 C51.0325478,36.5 50.352216,36.7669244 49.8574219,37.3007812 C49.3626277,37.8346381 49.0826826,38.593094 49.0175781,39.5761719 L47.1035156,39.3417969 Z M58.5488281,41.8027344 C58.5488281,39.5110563 59.0322217,37.7548889 59.9990234,36.5341797 C60.9658251,35.3134705 62.2369713,34.703125 63.8125,34.703125 C65.4010496,34.703125 66.6770785,35.3118429 67.640625,36.5292969 C68.6041715,37.7467509 69.0859375,39.5045458 69.0859375,41.8027344 C69.0859375,44.2571737 68.6171922,46.1207619 67.6796875,47.3935547 C66.7421828,48.6663475 65.4531332,49.3027344 63.8125,49.3027344 C62.1848877,49.3027344 60.9007208,48.6663475 59.9599609,47.3935547 C59.019201,46.1207619 58.5488281,44.2571737 58.5488281,41.8027344 Z M60.5703125,41.8027344 C60.5703125,45.5722845 61.6510309,47.4570312 63.8125,47.4570312 C65.9739691,47.4570312 67.0546875,45.5722845 67.0546875,41.8027344 C67.0546875,38.3066231 65.9739691,36.5585938 63.8125,36.5585938 C62.7708281,36.5585938 61.9700549,36.9980425 61.4101562,37.8769531 C60.8502576,38.7558638 60.5703125,40.0644444 60.5703125,41.8027344 Z M71.2832031,39.1757812 L71.2832031,36.9980469 L74.5058594,34.9960938 L76.2050781,34.9960938 L76.2050781,49 L74.3007812,49 L74.3007812,37.28125 L71.2832031,39.1757812 Z M79.5058594,36.8808594 L79.5058594,34.9960938 L88.5390625,34.9960938 L88.5390625,37.0761719 L82.1230469,49 L79.8476562,49 L86.4785156,36.9199219 L86.4785156,36.8808594 L79.5058594,36.8808594 Z" id="2017" fill="#999999"></path>
            </g>
        </g>
    </g>
</svg>