<?xml version="1.0" encoding="utf-8"?>
<!-- Generator: Adobe Illustrator 21.0.0, SVG Export Plug-In . SVG Version: 6.00 Build 0)  -->
<svg version="1.1" id="Layer_1" xmlns="http://www.w3.org/2000/svg" xmlns:xlink="http://www.w3.org/1999/xlink" x="0px" y="0px"
	 width="109px" height="36px" viewBox="0 0 109 36" style="enable-background:new 0 0 109 36;" xml:space="preserve">
<style type="text/css">
	.st0{fill:#29313E;}
</style>
<title>Grove</title>
<desc>Created with Sketch.</desc>
<g id="Symbols">
	<g id="Logo">
		<g id="Grove">
			<path id="Fill-12" class="st0" d="M92,8.9c1-2,3.1-3.4,5.5-3.4s4.5,1.4,5.5,3.4H92z M108,7.1c-0.6-1.4-1.4-2.6-2.5-3.6
				c-1.1-1.1-2.3-1.9-3.6-2.5c-1.4-0.6-2.9-0.9-4.5-0.9c-1.5,0-3.1,0.3-4.5,0.9c-1.4,0.6-2.6,1.4-3.6,2.5c-1.1,1.1-1.9,2.3-2.5,3.6
				C86.3,8.5,86,10,86,11.6c0,1.5,0.3,3,0.9,4.5c0.6,1.4,1.4,2.6,2.5,3.6c1.1,1.1,2.3,1.9,3.6,2.5c1.4,0.6,2.9,0.9,4.5,0.9
				c2.2,0,3.9-0.2,5.3-0.8c1.4-0.5,2.1-2.1,1.6-3.5c-0.5-1.4-2.1-2.1-3.5-1.6c-0.7,0.3-1.9,0.4-3.4,0.4c-2.4,0-4.5-1.4-5.5-3.4h14.2
				c1.5,0,2.7-1.2,2.7-2.7C109,10,108.6,8.5,108,7.1L108,7.1z"/>
			<path id="Fill-5" class="st0" d="M84.2,0.4c-1.3-0.7-2.9-0.1-3.6,1.2l-6.4,12.7L67.8,1.7c-0.7-1.3-2.3-1.9-3.6-1.2
				c-1.3,0.7-1.9,2.3-1.2,3.6l8.8,17.4c0.5,0.9,1.4,1.5,2.4,1.5h0c1,0,1.9-0.6,2.4-1.5L85.4,4C86,2.7,85.5,1.1,84.2,0.4"/>
			<path id="Fill-3" class="st0" d="M50.9,17.7c-1.6,0-3.1-0.6-4.3-1.8c-1.2-1.2-1.8-2.7-1.8-4.4c0-1.6,0.6-3.1,1.8-4.2
				c1.1-1.1,2.7-1.8,4.3-1.8c3.4,0,6.1,2.7,6.1,6.1C57,15,54.3,17.7,50.9,17.7 M59,3.5c-1.1-1.1-2.3-1.9-3.6-2.5
				c-1.4-0.6-2.9-0.9-4.5-0.9c-3.1,0-5.9,1.2-8.1,3.3c-2.2,2.1-3.4,5-3.4,8.1c0,1.5,0.3,3,0.9,4.5c0.6,1.4,1.4,2.6,2.4,3.7
				c1.1,1.1,2.3,1.9,3.6,2.5c1.4,0.6,2.9,0.9,4.5,0.9c1.5,0,3.1-0.3,4.5-0.9c1.4-0.6,2.6-1.4,3.6-2.5c1.1-1.1,1.9-2.3,2.5-3.6
				c0.6-1.4,0.9-2.9,0.9-4.5c0-1.5-0.3-3-0.9-4.5C60.9,5.8,60.1,4.6,59,3.5"/>
			<path id="Fill-7" class="st0" d="M37.3,0.2c-1.4-0.2-2.7,0-4.1,0.4C32.1,1,31,1.7,30,2.5c-1,0.9-1.9,2-2.5,3.1
				c-0.6,1.2-1,2.6-1,3.8v10.9c0,1.5,1.2,2.7,2.7,2.7c1.5,0,2.7-1.2,2.7-2.7V9.5c0-0.7,0.5-1.9,1.6-2.9c0.6-0.5,1.7-1.3,3.1-1.1
				c0.1,0,0.2,0,0.4,0c1.3,0,2.5-1,2.7-2.3C39.8,1.7,38.8,0.4,37.3,0.2"/>
			<path id="Fill-1" class="st0" d="M0.2,35.9L0.2,35.9h12.9c5.5,0,10-4.5,10-10v0H10.2C4.7,25.9,0.2,30.4,0.2,35.9"/>
			<path id="Fill-10" class="st0" d="M11.6,17.7c-3.4,0-6.1-2.7-6.1-6.1s2.7-6.1,6.1-6.1s6.1,2.7,6.1,6.1S15,17.7,11.6,17.7
				L11.6,17.7z M23.1,0.1H11.6v0c0,0,0,0,0,0c-1.5,0-3.1,0.3-4.5,0.9C5.8,1.6,4.6,2.4,3.5,3.5C2.5,4.5,1.6,5.7,1.1,7.1
				C0.5,8.5,0.2,10,0.2,11.6s0.3,3,0.9,4.5c0.6,1.4,1.4,2.6,2.5,3.6c1.1,1.1,2.3,1.9,3.6,2.5c1.4,0.6,2.9,0.9,4.5,0.9
				s3.1-0.3,4.5-0.9c1.4-0.6,2.6-1.4,3.6-2.5c1.1-1.1,1.9-2.3,2.5-3.6c0.6-1.4,0.9-2.9,0.9-4.5s-0.3-3-0.9-4.5
				c-0.2-0.4-0.4-0.9-0.6-1.3C22.5,4.1,23.1,2.2,23.1,0.1L23.1,0.1z"/>
		</g>
	</g>
</g>
</svg>
