<?xml version="1.0" encoding="UTF-8"?>
<svg width="183px" height="50px" viewBox="0 0 183 50" version="1.1" xmlns="http://www.w3.org/2000/svg" xmlns:xlink="http://www.w3.org/1999/xlink">
    <!-- Generator: Sketch 48.2 (47327) - http://www.bohemiancoding.com/sketch -->
    <title>JPMC</title>
    <desc>Created with Sketch.</desc>
    <defs></defs>
    <g id="Homepage" stroke="none" stroke-width="1" fill="none" fill-rule="evenodd" transform="translate(-914.000000, -706.000000)">
        <g id="Featured-in" transform="translate(525.000000, 651.000000)" fill="#CCCCCC">
            <g id="JPMC" transform="translate(389.000000, 55.000000)">
                <path d="M11.5073203,26.3268634 C13.4361136,26.3268634 15.1730257,26.9302351 16.7058563,28.1292147 C18.2409051,29.3281943 19.2568767,31.4344499 19.7559894,34.4723824 L20.5190772,34.4723824 L20.310559,25.9453194 L19.5485803,25.9453194 C19.4465395,26.9557453 19.1359805,27.9151508 18.64685,28.8568101 C17.9736025,28.0160825 16.9653949,27.2596495 15.5978261,26.5697649 C14.2324756,25.8787711 12.7051908,25.5293922 11.0226264,25.5293922 C8.98513753,25.5293922 7.11180124,25.9941216 5.40705413,26.9501996 C3.70119787,27.9073869 2.37355812,29.3792147 1.42080745,31.3523736 C0.469165927,33.3255324 0,35.4251331 0,37.6611579 C0,41.0617791 1.02040816,43.8057897 3.08451642,45.8754437 C5.14751553,47.9439885 7.80057675,48.9599601 11.0570098,48.9599601 C14.1337622,48.9599601 16.6670364,47.8696761 18.64685,45.6325421 C19.1736912,46.3257542 19.5563443,47.1187888 19.7559894,48.0238465 L20.5190772,48.0238465 L20.5190772,40.0524623 L19.7559894,40.0524623 C19.6228926,41.3656832 19.1770186,42.7376886 18.439441,44.1418589 C17.7040816,45.5482476 16.7213842,46.5353815 15.4591837,47.1232254 C14.1947649,47.7110692 12.9569654,48.0238465 11.7502218,48.0238465 C9.49090506,48.0238465 7.58318545,47.0943878 6.06588287,45.2864907 C4.5485803,43.4763753 3.81322094,40.8832076 3.81322094,37.4881322 C3.81322094,33.9022848 4.50199645,31.1627107 5.89285714,29.238354 C7.2826087,27.3117791 9.14929015,26.3268634 11.5073203,26.3268634" id="Fill-1"></path>
                <path d="M50.7431233,41.3349601 L53.7588731,33.9869122 L56.8090062,41.3349601 L50.7431233,41.3349601 Z M61.5916149,46.3948536 L60.7952529,44.5936114 L55.0066548,30.7637533 L54.4864685,30.7637533 L49.426575,42.8256433 C49.0616681,43.6929902 48.8209849,44.1876664 48.7677462,44.3163265 C48.2298137,45.6805679 47.7939219,46.5612245 47.4157054,46.9849157 C47.0374889,47.4097161 46.4574091,47.695874 45.6832298,47.8167702 L45.6832298,48.4057232 L50.9161491,48.4057232 L50.9161491,47.8167702 C50.3515972,47.8167702 49.8868678,47.6714729 49.5297249,47.4008429 C49.1770186,47.1313221 49.0106477,46.7453416 49.0106477,46.2218279 C49.0106477,45.7338066 49.3478261,44.7056344 50.015528,43.1029281 L50.4658385,41.9937888 L57.0507986,41.9937888 L58.4028394,45.2169476 C58.797693,46.1508429 58.9917924,46.6921029 58.9917924,46.8806566 C58.9917924,47.2477817 58.8354037,47.5195209 58.5414818,47.6426353 C58.2464508,47.7668589 57.6785714,47.8167702 56.8433895,47.8167702 L56.8433895,48.4057232 L63.6712511,48.4057232 L63.6712511,47.8167702 C63.0612245,47.7568767 62.6231145,47.6015972 62.3203194,47.3653505 C62.0153061,47.1324312 61.7712955,46.8063443 61.5916149,46.3948536 Z" id="Fill-3"></path>
                <path d="M36.0817436,31.5952751 L36.5320541,31.5952751 C37.407165,31.5952751 37.9717169,31.6851154 38.2301464,31.8381766 C38.489685,31.9912378 38.6738021,32.2663043 38.7503327,32.6700311 C38.8279725,33.0715395 38.8545918,33.9544144 38.8545918,35.3386202 L38.8545918,38.8046806 L29.7740683,38.8046806 L29.7740683,35.3386202 C29.7740683,33.8945209 29.8206522,32.9850266 29.9127107,32.6001553 C30.0036602,32.2163931 30.1977595,31.9424357 30.4672804,31.8026841 C30.734583,31.6618234 31.2725155,31.5952751 32.1298802,31.5952751 L32.4770408,31.5952751 L32.4770408,31.0063221 L24.5744232,31.0063221 L24.5744232,31.5952751 L24.9204747,31.5952751 C25.8088953,31.5952751 26.355701,31.6851154 26.6196761,31.8381766 C26.881433,31.9912378 27.0600044,32.2663043 27.1387533,32.6700311 C27.2219388,33.0715395 27.2785049,33.9544144 27.2785049,35.3386202 L27.2785049,43.8656832 C27.2785049,45.320874 27.2219388,46.2736247 27.1387533,46.6729148 C27.0600044,47.0699867 26.8725599,47.3528172 26.5841837,47.5391526 C26.2958075,47.7277063 25.774512,47.8164374 25.0247338,47.8164374 L24.5744232,47.8164374 L24.5744232,48.4053904 L32.4770408,48.4053904 L32.4770408,47.8164374 L32.0267303,47.8164374 C31.2381322,47.8164374 30.679126,47.7088509 30.3974046,47.5047693 C30.1156832,47.2984694 29.9459849,46.9923469 29.8772183,46.5686557 C29.8084516,46.1438554 29.7740683,45.2387977 29.7740683,43.8656832 L29.7740683,39.6709184 L38.8545918,39.6709184 L38.8545918,43.8656832 C38.8545918,45.3230923 38.8279725,46.2392413 38.7503327,46.6385315 C38.6738021,47.0367125 38.4785936,47.3494898 38.1957631,47.5391526 C37.9107143,47.7277063 37.4005102,47.8164374 36.6706965,47.8164374 L36.0817436,47.8164374 L36.0817436,48.4053904 L43.9499778,48.4053904 L43.9499778,47.8164374 L43.5684339,47.8164374 C42.7920364,47.8164374 42.2563221,47.7088509 41.9734916,47.5047693 C41.6928793,47.2995785 41.5187445,46.9923469 41.4544144,46.5686557 C41.3889752,46.1449645 41.3501553,45.2343611 41.3501553,43.8656832 L41.3501553,35.3386202 C41.3501553,33.8945209 41.4000665,32.9850266 41.4887977,32.6001553 C41.5797471,32.2163931 41.7450089,31.9424357 42.008984,31.8026841 C42.2740683,31.6618234 42.853039,31.5952751 43.7070763,31.5952751 L43.9499778,31.5952751 L43.9499778,31.0063221 L36.0817436,31.0063221 L36.0817436,31.5952751 Z" id="Fill-5"></path>
                <path d="M93.2717391,46.0488021 C92.7393523,46.7808341 92.1936557,47.257764 91.6080302,47.4696096 C91.0168589,47.6825643 90.2681899,47.7812777 89.3553682,47.7812777 L88.0732032,47.7812777 C86.9108252,47.7812777 86.1898846,47.5905058 85.9236912,47.2267081 C85.6597161,46.8640195 85.5421473,45.6484028 85.5421473,43.587622 L85.5421473,39.4638421 L87.4143744,39.4638421 C88.1541704,39.4638421 88.6965395,39.5370453 89.0082076,39.6368678 C89.3198758,39.7355812 89.5405945,39.9307897 89.7014197,40.2602041 C89.863354,40.5918367 89.9443212,41.2351375 89.9443212,42.2011979 L90.5332742,42.2011979 L90.5332742,36.2739574 L89.9443212,36.2739574 C89.9443212,37.1268855 89.8777728,37.7136202 89.7712955,38.0075421 C89.6648181,38.3025732 89.4463177,38.5210736 89.1124667,38.6663709 C88.7775067,38.8116681 88.1852263,38.8737799 87.3444987,38.8737799 L85.5421473,38.8737799 L85.5421473,31.5956078 L87.9345608,31.5956078 C89.1401952,31.5956078 89.9886868,31.6710293 90.5332742,31.8030169 C91.0767524,31.9361136 91.559228,32.2322538 91.9551908,32.7391304 C92.3478261,33.2471162 92.6883319,34.1266637 92.960071,35.338953 L93.549024,35.338953 L93.1330967,31.0055457 L80.7240461,31.0055457 L80.7240461,31.5956078 C81.5703194,31.5956078 82.1237799,31.6699201 82.3877551,31.8374002 C82.6517303,32.0026619 82.8358474,32.2866016 82.9079414,32.7047471 C82.9833629,33.1228926 83.0122005,34.0135315 83.0122005,35.338953 L83.0122005,43.8649068 C83.0122005,45.3200976 82.9767081,46.2484472 82.9079414,46.6033718 C82.8391748,46.9571872 82.673913,47.2377995 82.4232476,47.4696096 C82.1714729,47.7003106 81.6501775,47.8167702 80.7939219,47.8167702 L80.412378,47.8167702 L80.412378,48.4057232 L94.7624224,48.4057232 L95.1428571,42.998669 L94.5539042,42.998669 C94.2455634,44.3019077 93.804126,45.3189885 93.2717391,46.0488021" id="Fill-7"></path>
                <path d="M75.1789042,39.5326087 C74.4967835,39.1266637 73.386535,38.5743123 71.8858696,37.9032831 C70.3175466,37.1967613 69.2638642,36.5567879 68.6627107,35.9966726 C68.0504658,35.4465395 67.7265972,34.7843833 67.7265972,33.9869122 C67.7265972,33.3269743 67.9683895,32.7069654 68.4553017,32.1501775 C68.9422138,31.5956078 69.699756,31.318323 70.7423469,31.318323 C71.8381766,31.318323 72.8242014,31.7076309 73.6538376,32.4618456 C74.4868012,33.2182786 75.0591171,34.2320319 75.3863132,35.546362 L75.9408829,35.546362 L75.9408829,31.0066548 L75.3863132,31.0066548 C75.3375111,31.5534605 75.1223381,32.0625555 74.7285936,32.5317214 C74.0420364,31.7797249 73.369898,31.2806122 72.717724,31.0410382 C72.064441,30.8003549 71.3446096,30.6938776 70.6037045,30.6938776 C69.2793922,30.6938776 68.2101819,31.0809672 67.3461624,31.907276 C66.4821429,32.7335847 66.0285049,33.7850488 66.0285049,35.0272848 C66.0285049,35.8413931 66.2547693,36.5967169 66.6529503,37.3143301 C67.0500222,38.0330524 67.5735359,38.6342059 68.2811668,39.0822981 C68.9899068,39.5326087 70.0746451,40.0439219 71.4699423,40.641748 C73.0349379,41.310559 74.1052573,41.9327862 74.6942103,42.5139752 C75.2831633,43.1029281 75.5604481,43.8249778 75.5604481,44.6967613 C75.5604481,45.5607808 75.225488,46.3560337 74.5555679,47.0536823 C73.8834295,47.751331 72.9373336,48.094055 71.7128438,48.094055 C68.9921251,48.094055 67.2762866,46.2639752 66.5486912,42.6171251 L65.8898625,42.6171251 L65.8898625,48.2326974 L66.5486912,48.2326974 C66.6851154,47.5039929 66.8869787,46.9361136 67.1720275,46.533496 C68.4508651,47.9975599 70.0435892,48.7173913 71.9557453,48.7173913 C73.6183452,48.7173913 74.9470941,48.2626442 75.9408829,47.3309672 C76.9357808,46.3970719 77.4315661,45.1814552 77.4315661,43.6918811 C77.4315661,42.7502218 77.2175022,41.9150399 76.8082298,41.1963177 C76.3945209,40.4787045 75.862134,39.9385537 75.1789042,39.5326087" id="Fill-9"></path>
                <path d="M172.124556,46.0140861 C170.992125,47.4193656 169.463731,48.1281056 167.514973,48.1281056 C165.291149,48.1281056 163.599712,47.4193656 162.488354,46.0140861 C161.378106,44.6088066 160.824645,42.5402618 160.824645,39.7407941 C160.824645,36.9823647 161.378106,34.875 162.488354,33.4663931 C163.599712,32.0588953 165.219055,31.3523736 167.306455,31.3523736 C169.42602,31.3523736 171.044255,32.0932786 172.15894,33.5362689 C173.276952,34.9792591 173.822649,37.0333851 173.822649,39.7407941 C173.822649,42.5236247 173.255878,44.6088066 172.124556,46.0140861 M174.06555,33.1547249 C172.249889,31.5464729 169.978372,30.7290373 167.272072,30.7290373 C164.589064,30.7290373 162.376331,31.5276176 160.582853,33.1547249 C158.788265,34.7807232 157.878771,36.9490905 157.878771,39.636535 C157.878771,42.3927462 158.745009,44.5888421 160.512977,46.2569876 C162.282054,47.9273514 164.546917,48.7869343 167.306455,48.7869343 C170.143634,48.7869343 172.42957,47.9273514 174.169809,46.2569876 C175.907831,44.5888421 176.804015,42.4360027 176.804015,39.7407941 C176.804015,36.9590728 175.880102,34.7640861 174.06555,33.1547249" id="Fill-11"></path>
                <path d="M181.517524,45.66748 C181.141526,45.2937001 180.701198,45.1129104 180.165484,45.1129104 C179.643079,45.1129104 179.186114,45.2937001 178.813443,45.66748 C178.439663,46.04126 178.258873,46.4971162 178.258873,47.0195209 C178.258873,47.5319432 178.446318,47.9855812 178.813443,48.3715617 C179.180568,48.756433 179.633097,48.9261313 180.165484,48.9261313 C180.688997,48.9261313 181.138199,48.7431233 181.517524,48.3715617 C181.89685,47.9966726 182.072094,47.5530169 182.072094,47.0195209 C182.072094,46.4971162 181.890195,46.04126 181.517524,45.66748" id="Fill-13"></path>
                <path d="M144.604037,26.2575421 C146.530612,26.2575421 148.267524,26.8609139 149.802573,28.0598935 C151.338731,29.2588731 152.354703,31.3651287 152.852706,34.4030612 L153.615794,34.4030612 L153.407276,25.8416149 L152.645297,25.8416149 C152.542147,26.8520408 152.26819,27.8458296 151.779059,28.7874889 C151.104703,27.9467613 150.059894,27.1914374 148.694543,26.5004437 C147.325865,25.8094499 145.800799,25.460071 144.119343,25.460071 C142.081854,25.460071 140.208518,25.9248004 138.503771,26.8808784 C136.799024,27.8380657 135.470275,29.3098935 134.517524,31.2830524 C133.566992,33.2562112 133.096717,35.356921 133.096717,37.5918367 C133.096717,40.9946761 134.117125,43.7375776 136.181233,45.8061224 C138.245342,47.8746673 140.933895,48.8906389 144.18811,48.8906389 C147.267081,48.8906389 149.798137,47.7648625 151.779059,45.5288376 C152.302573,46.2187223 152.650843,47.0173026 152.852706,47.920142 L153.615794,47.920142 L153.615794,39.9831411 L152.852706,39.9831411 C152.71961,41.2952529 152.272626,42.6683673 151.536158,44.0725377 C150.800799,45.4789264 149.815883,46.4660603 148.555901,47.0539042 C147.291482,47.641748 146.054791,47.920142 144.846939,47.920142 C142.587622,47.920142 140.681012,47.0261757 139.1626,45.2171695 C137.647516,43.4070541 136.909938,40.8127773 136.909938,37.418811 C136.909938,33.8329636 137.599823,31.0590062 138.989574,29.1346495 C140.380435,27.2058563 142.243789,26.2575421 144.604037,26.2575421" id="Fill-16"></path>
                <path d="M111.815106,47.331189 C110.353261,47.331189 109.021185,46.7000887 107.863243,45.4245785 C106.706411,44.1512866 106.130768,42.7681899 106.130768,41.3351819 C106.130768,40.4057232 106.464618,39.4540816 107.135648,38.4580745 C107.80335,37.4620674 108.758319,36.6035936 109.978372,35.858252 C111.747449,38.1708075 113.87256,41.1754658 116.32043,44.9043922 C114.94177,46.5104259 113.437777,47.331189 111.815106,47.331189 M110.359916,27.0550133 C110.867902,26.5004437 111.52673,26.2231588 112.369676,26.2231588 C113.220386,26.2231588 113.893634,26.511535 114.414929,27.0893966 C114.932897,27.6683673 115.2124,28.4037267 115.2124,29.3420586 C115.2124,30.9170364 114.032276,32.3888642 111.710847,33.7442325 C110.285603,31.7866016 109.596828,30.2349157 109.596828,29.1002662 C109.596828,28.2772848 109.849712,27.6106921 110.359916,27.0550133 M123.80823,47.4354481 C123.002995,47.4354481 122.265417,47.1858917 121.554459,46.7078527 C120.845719,46.2298137 119.854148,45.0951642 118.608585,43.310559 C119.132098,42.6151287 119.715506,41.5359361 120.34106,40.0530169 C121.086402,38.255102 121.821761,37.0272848 122.524956,36.3784383 C123.230368,35.7284827 124.042258,35.2814996 124.986136,35.0263975 L124.986136,34.194543 L117.499445,34.194543 L117.499445,35.0263975 C119.332853,35.2360248 120.23791,35.9813665 120.23791,37.3145519 C120.23791,37.8702307 120.03272,38.6466282 119.647848,39.6370896 C119.265195,40.627551 118.750555,41.5847382 118.088398,42.5130878 C116.247227,39.9010648 114.302906,37.2025288 112.231034,34.4030612 C115.576198,32.7204969 117.222161,30.993567 117.222161,29.2034161 C117.222161,28.0532387 116.743012,27.1049246 115.731477,26.3961846 C114.718833,25.6874445 113.557564,25.356921 112.2998,25.356921 C110.891193,25.356921 109.731034,25.8305235 108.799357,26.7777285 C107.868789,27.7249335 107.412933,28.7919255 107.412933,30.0008873 C107.412933,31.534827 108.095053,33.238465 109.458185,35.1306566 C107.194432,36.6424135 105.648292,37.9168146 104.848602,38.9083851 C104.050022,39.9032831 103.669587,41.1188997 103.669587,42.5829636 C103.669587,43.8629104 103.999002,44.9698314 104.640084,45.9447649 C105.281167,46.9219166 106.080856,47.6927684 107.101264,48.2318101 C108.121673,48.771961 109.204193,49.0636646 110.324423,49.0636646 C112.608141,49.0636646 114.789818,47.9101597 116.840617,45.6330967 C118.565328,47.9101597 120.565106,49.0636646 122.837733,49.0636646 C123.88476,49.0636646 124.812001,48.7497782 125.610581,48.1630435 C126.406943,47.5774179 126.923802,46.7943656 127.170031,45.8405058 L126.338177,45.8405058 C125.744787,46.8886424 124.901841,47.4354481 123.80823,47.4354481" id="Fill-18"></path>
                <path d="M38.5425909,9.44709406 C38.0068767,10.2844942 37.3347382,10.8113354 36.5328305,11.0764197 C35.7287045,11.3381766 34.6827862,11.4923469 33.3784383,11.4923469 L31.7491127,11.4923469 L31.7491127,0.955523514 C32.1506211,0.910048802 32.7251553,0.885647737 33.4826974,0.885647737 C35.5468057,0.885647737 37.0341615,1.32597604 37.953638,2.20330524 C38.8731145,3.07841615 39.3400621,4.45263975 39.3400621,6.32708518 C39.3400621,7.55601154 39.0771961,8.60969388 38.5425909,9.44709406 M38.5425909,0.643855368 C37.2748447,0.275621118 35.4802573,0.088176575 33.1355368,0.088176575 C31.8611358,0.088176575 30.0765306,0.138087844 27.7972493,0.226818988 L24.9556344,0.331078083 L24.9556344,1.09416593 L25.3715617,1.09416593 C26.5250665,1.09416593 27.277063,1.20507986 27.6242236,1.40583407 C27.9724933,1.60769743 28.1821207,1.95596717 28.2830524,2.48059006 C28.383984,3.00410382 28.4560781,4.17868234 28.4560781,5.98103372 L28.4560781,17.0724268 C28.4560781,18.9657276 28.383984,20.1935448 28.2830524,20.7115129 C28.1821207,21.2294809 27.9647294,21.6110248 27.5898403,21.8561446 C27.2149512,22.1001553 26.5195209,22.2021961 25.5445874,22.2021961 L24.9556344,22.2021961 L24.9556344,22.9652839 L35.3881988,22.9652839 L35.3881988,22.2021961 L34.6262201,22.2021961 C33.606921,22.2021961 32.9159272,22.090173 32.5465839,21.8206522 C32.1761313,21.5522405 31.9365572,21.126331 31.8533718,20.5728705 C31.7679681,20.0194099 31.7491127,18.8603594 31.7491127,17.0724268 L31.7491127,12.2898181 L34.2446761,12.2898181 C36.8433895,12.2898181 38.6557232,12.050244 39.6861136,11.5611136 C40.7187223,11.070874 41.4895741,10.3588066 42.0430346,9.41271074 C42.595386,8.46439663 42.8748891,7.35525732 42.8748891,6.11967613 C42.8748891,4.69554126 42.4722715,3.51985359 41.6625998,2.58484916 C40.851819,1.64873558 39.8103372,1.01098048 38.5425909,0.643855368" id="Fill-20"></path>
                <path d="M11.6805679,1.0939441 L12.2007542,1.0939441 C13.3487134,1.0939441 14.0796362,1.20596717 14.4190328,1.40561224 C14.7595386,1.60636646 15.0068767,1.95907276 15.1122449,2.48036823 C15.2176131,3.00388199 15.2508873,4.18067879 15.2508873,5.98081189 L15.2508873,13.6760204 C15.2508873,16.1970941 15.1865572,18.0238465 15.0079858,19.1174579 C14.8316327,20.2132875 14.2781721,21.1538376 13.4130435,21.9590728 C12.549024,22.765417 11.4886868,23.1724712 10.2253771,23.1724712 C9.60314996,23.1724712 9.08740018,23.0604481 8.6648181,22.860803 C8.24556344,22.6611579 8.04148181,22.382764 8.04148181,22.0289485 C8.04148181,21.8958518 8.09250222,21.7050799 8.21450754,21.4399956 C8.34982254,21.1394188 8.42191659,20.8499335 8.42191659,20.5726486 C8.42191659,20.1079193 8.26885537,19.7163931 7.93722272,19.3947427 C7.60780834,19.0719831 7.18189885,18.9089397 6.68944099,18.9089397 C6.20807453,18.9089397 5.80767524,19.1041482 5.47604259,19.4635093 C5.14662822,19.8239796 4.99134871,20.2554348 4.99134871,20.7811668 C4.99134871,21.6518412 5.45718722,22.4016193 6.37777285,23.0338287 C7.30057675,23.664929 8.58496007,23.9699423 10.2941437,23.9699423 C11.8158829,23.9699423 13.1657054,23.7192768 14.3147737,23.2068545 C15.4638421,22.6944321 16.3999556,21.9734916 17.087622,21.0240683 C17.7752884,20.0724268 18.1834516,19.0797471 18.3354037,18.0781943 C18.4851375,17.0766415 18.5428128,15.6258873 18.5428128,13.7104037 L18.5428128,5.98081189 C18.5428128,4.10082076 18.6049246,2.91182343 18.7169476,2.41049246 C18.8267524,1.91027063 19.0652174,1.55312777 19.4101597,1.37122893 C19.7528838,1.18600266 20.4826974,1.0939441 21.594055,1.0939441 L22.1486247,1.0939441 L22.1486247,0.331965395 L11.6805679,0.331965395 L11.6805679,1.0939441 Z" id="Fill-23"></path>
                <path d="M61.1413043,19.0827418 L52.8227595,0.331632653 L45.9250222,0.331632653 L45.9250222,1.09361136 L46.5494676,1.09361136 C47.7029725,1.09361136 48.4250222,1.20563443 48.7677462,1.4052795 C49.1093611,1.60714286 49.3555901,1.95652174 49.4609583,2.48003549 C49.5674357,3.00465839 49.5996007,4.17701863 49.5996007,5.98047915 L49.5996007,15.8240905 C49.5996007,17.6952085 49.5607808,18.980701 49.4254658,19.6716948 C49.2923691,20.3615794 48.8941881,20.9682786 48.2819432,21.4396628 C47.6719166,21.9132653 46.9010648,22.1484028 45.9250222,22.2027507 L45.9250222,22.9647294 L54.0705413,22.9647294 L54.0705413,22.2027507 C53.0235138,22.1350932 52.2227152,21.8655723 51.6437445,21.3708962 C51.0636646,20.8751109 50.7153949,20.2950311 50.6044809,19.6373114 C50.4924579,18.9795918 50.4314552,17.7440106 50.4314552,15.9283496 L50.4314552,2.68855368 L59.4432121,22.9647294 L60.2406832,22.9647294 L69.148181,2.68855368 L69.148181,17.1073647 C69.148181,19.0006655 69.1149068,20.1940994 69.0095386,20.7120674 C68.9041704,21.2300355 68.6557232,21.6093611 68.2808341,21.8555901 C67.905945,22.1007098 67.2360248,22.2027507 66.2710736,22.2027507 L65.4736025,22.2027507 L65.4736025,22.9647294 L76.3575865,22.9647294 L76.3575865,22.2027507 L75.3527063,22.2027507 C74.3256433,22.2027507 73.6346495,22.0896185 73.2730701,21.8212067 C72.9081633,21.5550133 72.6685892,21.1579414 72.579858,20.6078083 C72.4889086,20.0576752 72.4412156,18.8542591 72.4412156,17.0729814 L72.4412156,5.98047915 C72.4412156,4.09937888 72.4944543,2.91259982 72.6142413,2.41126886 C72.7295918,1.90993789 72.961402,1.55390417 73.3074534,1.37089618 C73.6523957,1.1878882 74.411047,1.09361136 75.525732,1.09361136 L76.3575865,1.09361136 L76.3575865,0.331632653 L69.3555901,0.331632653 L61.1413043,19.0827418 Z" id="Fill-25"></path>
                <path d="M177.080967,5.53050133 L170.807675,5.53050133 L170.807675,6.1194543 C171.490905,6.1194543 172.054348,6.21705856 172.540151,6.39673913 C173.028172,6.5764197 173.35315,6.81821207 173.510648,7.12433452 C173.668146,7.43378438 173.753549,7.98502662 173.753549,8.75366016 L173.753549,19.1518412 L163.459627,5.53050133 L158.259982,5.53050133 L158.259982,6.1194543 C159.199423,6.1194543 159.790594,6.19931233 160.062334,6.32797249 C160.334073,6.45552351 160.527063,6.74168146 160.651287,7.19421029 C160.776619,7.64673913 160.859805,8.52739574 160.859805,9.86279947 L160.859805,19.1174579 C160.859805,20.1689219 160.80102,20.8100044 160.721162,21.092835 C160.640195,21.3745563 160.392857,21.6451863 159.958075,21.8903061 C159.52551,22.1354259 158.911047,22.2807232 158.086957,22.3406167 L158.086957,22.9306788 L164.533274,22.9306788 L164.533274,22.3406167 C163.613798,22.3406167 162.948314,22.2252662 162.48913,21.9601819 C162.028838,21.6950976 161.721606,21.4100488 161.621783,21.092835 C161.524179,20.7767303 161.483141,20.1179015 161.483141,19.1174579 L161.483141,7.02118456 L173.857808,23.3454969 L174.376886,23.3454969 L174.376886,8.92779503 C174.376886,8.18245342 174.436779,7.68001331 174.55102,7.36723602 C174.665262,7.05556788 174.931455,6.75720941 175.348492,6.53538154 C175.767746,6.31355368 176.353372,6.18045697 177.080967,6.1194543 L177.080967,5.53050133 Z" id="Fill-27"></path>
                <path d="M91.885315,20.503882 C90.7528838,21.9091615 89.2255989,22.6179015 87.275732,22.6179015 C85.0519077,22.6179015 83.3959627,21.9091615 82.2846051,20.503882 C81.1732476,19.0986025 80.6208962,17.0300577 80.6208962,14.2305901 C80.6208962,11.4721606 81.1732476,9.36590506 82.2846051,7.956189 C83.3959627,6.54758208 84.9798137,5.84216948 87.0672138,5.84216948 C89.1867791,5.84216948 90.8050133,6.58418367 91.9196983,8.02606477 C93.0354925,9.46794587 93.5834073,11.523181 93.5834073,14.2305901 C93.5834073,17.0134206 93.0166371,19.0986025 91.885315,20.503882 M93.8263088,7.64452085 C92.0106477,6.03626886 89.7402396,5.21883319 87.0328305,5.21883319 C84.3498225,5.21883319 82.1370896,6.01741349 80.3436114,7.64452085 C78.549024,9.27051908 77.6395297,11.4388864 77.6395297,14.126331 C77.6395297,16.8825421 78.5401508,19.078638 80.3081189,20.7467835 C82.0771961,22.4171473 84.3409494,23.2767303 87.1027063,23.2767303 C89.9376664,23.2767303 92.2258208,22.4171473 93.9649512,20.7467835 C95.7029725,19.078638 96.5647737,16.9257986 96.5647737,14.2305901 C96.5647737,11.4488687 95.6408607,9.25388199 93.8263088,7.64452085" id="Fill-29"></path>
                <path d="M143.044255,15.8939663 L146.094388,8.51153505 L149.144521,15.8939663 L143.044255,15.8939663 Z M153.928239,20.9538598 L153.130768,19.1171251 L147.342169,5.32275954 L146.821983,5.32275954 L141.727706,17.3491571 C141.36169,18.216504 141.159827,18.7122893 141.103261,18.8398403 C140.569765,20.2051908 140.096162,21.1202307 139.716837,21.5439219 C139.337511,21.9687223 138.792924,22.2204969 138.018744,22.3402839 L138.018744,22.9303461 L143.251664,22.9303461 L143.251664,22.3402839 C142.686003,22.3402839 142.220164,22.2304791 141.866349,21.9598492 C141.510315,21.6892192 141.346162,21.2699645 141.346162,20.7464508 C141.346162,20.2584295 141.682232,19.2302573 142.351043,17.6264419 L142.801353,16.5173026 L149.387422,16.5173026 L150.703971,19.7415705 C151.097715,20.6754658 151.328416,21.2511091 151.328416,21.4396628 C151.328416,21.8067879 151.173137,22.0441437 150.876996,22.1672582 C150.583075,22.2914818 150.016304,22.3402839 149.178904,22.3402839 L149.178904,22.9303461 L156.007875,22.9303461 L156.007875,22.3402839 C155.400067,22.2803904 154.958629,22.1606034 154.655834,21.9243567 C154.35193,21.6914374 154.105701,21.3653505 153.928239,20.9538598 Z" id="Fill-31"></path>
                <path d="M104.120453,5.98103372 C104.525288,5.94554126 104.882431,5.9466504 105.195209,5.9466504 C107.219388,5.9466504 108.541482,6.31932121 109.145963,7.05578971 C109.749335,7.79225821 110.047693,8.77717391 110.047693,10.0016637 C110.047693,10.704858 109.946761,11.2893744 109.770408,11.7696318 C109.591837,12.2487799 109.350044,12.6536158 109.041704,12.9475377 C108.734472,13.2436779 108.327418,13.4533052 107.829414,13.6063665 C107.33252,13.7605368 106.736912,13.849268 106.061446,13.8836513 C105.38598,13.9169255 104.753771,13.93689 104.120453,13.9524179 L104.120453,5.98103372 Z M107.170586,22.3408385 L106.338731,22.3408385 C105.549024,22.3408385 104.987799,22.233252 104.709406,22.0291704 C104.429902,21.8250887 104.25244,21.5156389 104.189219,21.0930568 C104.124889,20.6749113 104.120453,19.7842724 104.120453,18.4244676 L104.120453,14.6112467 L104.813665,14.6112467 C105.280612,14.6112467 105.596717,14.6977595 105.818545,14.8541482 C106.038154,15.0127551 106.445209,15.4164818 107.031943,16.1363132 C107.617569,16.8539264 108.184339,17.6070319 108.730035,18.3900843 C110.429237,20.8379547 111.718057,22.3463842 112.543256,22.9297915 L117.187223,22.9297915 L117.187223,22.3408385 C116.170142,22.3075643 115.300577,22.0214064 114.553017,21.4746007 C113.808784,20.9255768 112.781721,19.7698536 111.4685,18.0085404 C109.856921,15.8324091 108.659051,14.5779725 107.933673,14.2297028 C109.544144,14.0344942 110.777507,13.5453638 111.607143,12.7401287 C112.438997,11.9348935 112.854925,10.9344499 112.854925,9.79425466 C112.854925,8.81710293 112.52551,8.0007764 111.884428,7.29758208 C111.243345,6.59327862 110.4248,6.08196539 109.388864,5.77362467 C108.349601,5.46528394 106.989796,5.32220497 105.333851,5.32220497 C104.358917,5.32220497 103.039042,5.35437001 101.381988,5.42646406 L98.9219166,5.53072316 L98.9219166,6.11967613 L99.1992014,6.11967613 C100.095386,6.11967613 100.69543,6.20840728 100.96606,6.36257764 C101.234472,6.51563886 101.408607,6.79181455 101.486247,7.19443212 C101.564996,7.59594055 101.590506,8.4777063 101.590506,9.8630213 L101.590506,18.4244676 C101.590506,19.8785492 101.563886,20.7980257 101.486247,21.1973159 C101.409716,21.5943878 101.218944,21.8772183 100.931677,22.0635537 C100.645519,22.2521074 100.118678,22.3408385 99.3722272,22.3408385 L98.8176575,22.3408385 L98.8176575,22.9297915 L107.170586,22.9297915 L107.170586,22.3408385 Z" id="Fill-33"></path>
                <path d="M134.344499,21.8903061 L134.344499,20.0535714 C134.344499,18.5484694 134.388864,17.6023736 134.483141,17.2108474 C134.576309,16.8215395 134.775954,16.5120896 135.072094,16.3446096 C135.367125,16.1771295 135.94055,16.1017081 136.771295,16.1017081 L136.771295,15.5127551 L129.249113,15.5127551 L129.249113,16.1017081 L129.66504,16.1017081 C130.356034,16.1017081 130.828527,16.1671473 131.085847,16.2758429 C131.344277,16.380102 131.516193,16.5875111 131.640417,16.8991792 C131.76575,17.2119565 131.848935,17.8352928 131.848935,18.7702972 C131.848935,19.5677684 131.699201,20.2243789 131.433008,20.7467835 C131.170142,21.2691881 130.700976,21.6995342 129.976708,22.0633319 C129.251331,22.4293478 128.436114,22.6179015 127.55102,22.6179015 C125.820763,22.6179015 124.351154,21.9990018 123.18323,20.7124002 C122.015306,19.4269077 121.450754,17.2119565 121.450754,14.126331 C121.450754,11.0318323 122.074091,8.89341171 123.287489,7.67890417 C124.501996,6.46661491 125.91504,5.84216948 127.55102,5.84216948 C129.132653,5.84216948 130.46362,6.36346495 131.57165,7.40161934 C132.68079,8.44199201 133.369565,9.85170807 133.616903,11.6307675 L134.205856,11.6307675 L134.205856,5.80778616 L133.616903,5.80778616 C133.539264,6.50987134 133.348492,7.17535492 133.062334,7.78316327 C131.53394,6.07619787 129.605146,5.21883319 127.273736,5.21883319 C124.564108,5.21883319 122.440106,6.15161934 120.861801,8.02606477 C119.283496,9.89829193 118.469388,12.0877329 118.469388,14.5766415 C118.469388,17.0932786 119.315661,19.1773514 120.964951,20.8155501 C122.614241,22.454858 124.681677,23.2767303 127.169476,23.2767303 C128.408385,23.2767303 129.736025,22.9894632 131.190106,22.4448758 C132.258208,22.0444765 133.132209,21.8559228 133.789929,21.8559228 C133.951863,21.8559228 134.141526,21.8559228 134.344499,21.8903061" id="Fill-35"></path>
            </g>
        </g>
    </g>
</svg>