<?xml version="1.0" encoding="UTF-8"?>
<svg width="109px" height="60px" viewBox="0 0 109 60" version="1.1" xmlns="http://www.w3.org/2000/svg" xmlns:xlink="http://www.w3.org/1999/xlink">
    <!-- Generator: Sketch 48.2 (47327) - http://www.bohemiancoding.com/sketch -->
    <title>AB</title>
    <desc>Created with Sketch.</desc>
    <defs></defs>
    <g id="Homepage" stroke="none" stroke-width="1" fill="none" fill-rule="evenodd" transform="translate(-780.000000, -696.000000)">
        <g id="Featured-in" transform="translate(351.000000, 651.000000)" fill="#CCCCCC">
            <g id="AB" transform="translate(429.000000, 45.000000)">
                <path d="M5.82191489,17.8960596 L7.68268085,7.1256766 L9.35680851,17.8960596 L5.82191489,17.8960596 Z M9.10761702,28.9794638 L17.381234,28.9794638 L17.381234,28.9610809 L22.8111064,28.9610809 L22.8111064,27.5563149 L20.6291489,27.5563149 C20.6084681,27.2014213 20.5801277,26.6925702 20.5512766,26.095634 C20.495617,24.9372511 20.4397021,23.4546128 20.4397021,22.1729106 L20.4397021,10.5226979 L24.6672766,29.0039745 L25.9048085,29.0039745 L30.071617,9.81086809 L30.071617,27.5563149 L28.0349362,27.5563149 L28.0349362,28.9610809 L35.4471064,28.9610809 L35.4471064,27.5563149 L33.4390213,27.5563149 L33.4390213,4.48542128 L35.4070213,4.48542128 L35.4070213,3.12865532 L30.1831915,3.12865532 L26.2528085,21.0375064 L22.2220851,3.12865532 L16.6362128,3.12865532 L16.6362128,4.48542128 L18.8661702,4.48542128 L18.8661702,22.1729106 C18.8661702,23.1326553 18.7962128,24.6181021 18.7272766,25.855634 C18.6887234,26.5404 18.6504255,27.1483149 18.6238723,27.5563149 L17.381234,27.5563149 L17.381234,27.542017 L14.7322979,27.542017 L9.99102128,0.255293617 L7.54991489,0.255293617 L3.90855319,20.4150383 L3.90855319,20.4178468 C3.59731915,22.2352085 3.23910638,24.1317191 2.95902128,25.5714638 C2.79255319,26.4280596 2.65442553,27.1194638 2.56889362,27.542017 L0.000127659574,27.542017 L0.000127659574,28.9794638 L0.564382979,28.9794638 L7.0566383,28.9794638 L7.0566383,27.542017 L4.49297872,27.542017 C4.73374468,25.8706979 5.36770213,21.4197191 5.59544681,19.3853362 L9.66165957,19.3853362 L10.9742553,27.542017 L9.10761702,27.542017 L9.10761702,28.9794638 Z" id="Fill-1"></path>
                <path d="M47.8958298,19.6780596 L46.4389787,19.6780596 L46.4389787,20.2474213 C46.4405106,22.6849532 45.9954894,24.5763574 45.341617,25.808783 C45.0160851,26.4261447 44.6425532,26.8747404 44.262383,27.1604426 C43.8809362,27.447166 43.5048511,27.5755915 43.1157447,27.5768681 L41.8715745,27.5768681 L41.8715745,15.7438468 C41.9177872,15.7558468 41.9629787,15.7686128 42.0038298,15.7826553 C42.1907234,15.8434213 42.3204255,15.9343149 42.3308936,15.951166 L42.3531064,15.9731234 L42.377617,15.9925277 C42.617617,16.1860596 42.8563404,16.5595915 43.0391489,17.0291234 C43.6034043,18.4392511 43.6514043,20.5875064 43.6460426,20.6069106 L43.6460426,21.1762723 L45.1031489,21.1762723 L45.1031489,8.76214468 L43.6460426,8.76214468 L43.6460426,9.33150638 C43.6460426,9.34299574 43.6332766,10.3045277 43.4489362,11.3641021 C43.3582979,11.8949106 43.223234,12.4538043 43.0378723,12.9299745 C42.8548085,13.4061447 42.6148085,13.7898894 42.3684255,13.9949106 L42.3490213,14.0132936 L42.3308936,14.031166 C42.3308936,14.0365277 42.2142128,14.1195064 42.0260426,14.1700596 C41.9785532,14.1841021 41.9267234,14.1971234 41.8715745,14.2088681 L41.8715745,4.53048511 L43.1157447,4.53048511 C43.5010213,4.5317617 43.8771064,4.66274043 44.2585532,4.95457021 C44.8291915,5.38937872 45.3870638,6.20920851 45.7879149,7.38954894 C46.1913191,8.56733617 46.4389787,10.0982298 46.4389787,11.9260596 L46.4389787,12.4954213 L47.8958298,12.4954213 L47.8958298,3.17116596 L36.5724255,3.17116596 L36.5724255,4.53048511 L38.5442553,4.53048511 L38.5442553,27.5768681 L36.5724255,27.5768681 L36.5724255,28.1462298 L36.5724255,28.4342298 L36.5724255,29.0035915 L47.8958298,29.0035915 L47.8958298,19.6780596 Z" id="Fill-4"></path>
                <path d="M54.2272085,4.53245106 C54.5626979,4.54547234 54.9163149,4.57662128 55.2546128,4.66266383 C55.795634,4.80130213 56.2664426,5.04640851 56.6218468,5.53942979 L56.6310383,5.55245106 L56.6399745,5.56419574 C56.966783,5.95202553 57.2522298,6.89772766 57.3911234,7.79389787 C57.5376766,8.6916 57.5790383,9.56325957 57.5790383,9.85917447 C57.5882298,11.3081106 57.2859319,13.1359404 56.6634638,14.0660681 L56.6672936,14.0607064 C56.2301872,14.7053872 55.8837191,14.9456426 55.4568255,15.0893872 C55.1376766,15.1956 54.7355489,15.2293021 54.2272085,15.2384936 L54.2272085,4.53245106 Z M56.2753787,28.9968766 L56.2753787,27.5918553 L54.2272085,27.5918553 L54.2272085,16.7063234 C54.614783,16.7221532 54.9985277,16.7581532 55.3557191,16.8418979 C55.8883149,16.9664936 56.3535064,17.1801957 56.7398043,17.5593447 C57.1878894,18.0081957 57.4314638,18.6122809 57.559634,19.300366 C57.6883149,19.9864085 57.6906128,20.7350043 57.6895915,21.4041957 L57.6895915,24.8494723 C57.6921447,25.7397702 57.8800596,26.7449617 58.3549532,27.5918553 C58.5924,28.0136426 58.9077191,28.3989191 59.3213362,28.6815574 C59.7339319,28.9641957 60.2463574,29.1342383 60.8118894,29.133217 C61.3513787,29.133217 61.8301021,29.0267489 62.2375915,28.8115149 C62.6461021,28.5973021 62.9703574,28.2873447 63.249166,27.9357702 L63.249166,27.9370468 C64.1118894,26.8241106 64.3455064,25.1024936 64.3569957,23.5966213 C64.3557191,23.3734723 64.3258468,23.1531319 64.2015064,22.9271745 C64.1392085,22.8156 64.0444851,22.7027489 63.9135064,22.6184936 C63.7838043,22.5342383 63.6204,22.4887915 63.4697617,22.4900681 C63.2647404,22.4796 62.9795489,22.6054723 62.8317191,22.833983 C62.6810809,23.0584085 62.6369106,23.3058128 62.6343574,23.5966213 L62.6343574,24.5356851 C62.6369106,25.773217 62.4293362,26.6178128 62.1686553,27.0937277 C61.8962298,27.5737277 61.658783,27.6725362 61.4228681,27.6801957 L61.2814213,27.6076851 C61.1800596,27.4999404 61.0401447,27.1366213 60.9727404,26.6190894 C60.8999745,26.1025787 60.8754638,25.4413021 60.8754638,24.7161957 L60.8754638,21.225217 C60.8767404,20.3834298 60.7884,19.684366 60.5289957,19.0327915 C60.2708681,18.3830043 59.8544426,17.8149191 59.2720596,17.205217 L59.2654213,17.198834 L59.2590383,17.1909191 C58.5352085,16.4760255 57.8238894,16.0869191 57.1720596,15.8469191 C58.3672085,15.2719404 59.2521447,14.5325362 59.8674638,13.6871745 C60.7263574,12.5093872 61.0439745,11.1577277 61.0426979,9.85917447 C61.0414213,8.86930213 60.8001447,7.91185532 60.4809957,7.10377021 C60.1610809,6.3036 59.7778468,5.65738723 59.4061021,5.24045106 L59.4068681,5.23994043 C58.6312085,4.31491915 57.6622723,3.78436596 56.6647404,3.50147234 C55.6672085,3.21755745 54.6359745,3.16291915 53.6629532,3.16291915 L49.1849106,3.16291915 L49.1849106,4.52249362 L50.9310383,4.52249362 L50.9310383,27.5918553 L49.1849106,27.5918553 L49.1849106,28.9968766 L49.749166,28.9968766 L56.2753787,28.9968766 Z" id="Fill-6"></path>
                <polygon id="Fill-8" points="65.7069702 27.5712511 64.3305447 27.5712511 64.3305447 28.1406128 64.3305447 28.4352511 64.3305447 29.0046128 70.5728426 29.0046128 70.5728426 27.5712511 68.9589702 27.5712511 68.9589702 4.53150638 70.5728426 4.53150638 70.5728426 3.17065532 64.0412681 3.17065532 64.0412681 4.53150638 65.7069702 4.53150638"></polygon>
                <path d="M80.9535574,24.1035064 C81.2727064,22.6389957 81.3947489,21.1029957 81.3957702,19.8708255 C81.3919404,19.7109957 81.4075149,19.5177191 81.3258128,19.2544851 C81.2831745,19.124783 81.1961106,18.9626553 81.0378128,18.8421447 C80.8807915,18.7201021 80.6811319,18.6708255 80.512366,18.6721021 C80.3425787,18.6682723 80.1375574,18.740783 80.0053021,18.8653787 C79.8053872,19.0535489 79.756366,19.2506553 79.7198553,19.4140596 C79.6874298,19.5812936 79.6810468,19.7436766 79.6810468,19.9147404 C79.6823234,20.8875064 79.6511745,22.8971234 79.2477702,24.6054638 C79.0493872,25.4579745 78.7534723,26.2282723 78.3720255,26.7381447 C77.980366,27.2490383 77.5795149,27.4995064 76.9853872,27.5074213 L76.8661532,27.5074213 C76.6687915,27.5074213 76.5171319,27.5023149 76.4055574,27.4801021 C76.2408766,27.4397617 76.1474298,27.4073362 75.9605362,27.1959319 C75.7777277,26.9832511 75.5441106,26.5693787 75.285983,25.8639319 L75.2872596,25.8690383 C74.8917702,24.7818894 74.6632596,22.7401021 74.5596,20.8423149 C74.4518553,18.9366128 74.4518553,17.1529532 74.4518553,16.4602723 C74.4505787,12.4402723 74.630834,9.26461277 75.0784085,7.15669787 C75.2990043,6.10478298 75.5921106,5.3237617 75.9112596,4.85933617 C76.2434298,4.39235745 76.5120255,4.25346383 76.876366,4.24452766 C77.308366,4.24708085 77.6716851,4.46257021 78.0554298,4.95661277 C78.6199404,5.69091064 79.0557702,6.99074043 79.3138979,8.32299574 C79.5771319,9.65652766 79.6810468,11.0275915 79.6810468,11.9278468 L79.6810468,12.4972085 L80.2453021,12.4972085 L80.512366,12.4972085 L81.0766213,12.4972085 L81.0766213,2.74631489 L79.7887915,2.74631489 L79.7887915,3.3156766 L79.6915149,3.67108085 C79.6146638,3.76708085 79.6018979,3.80997447 79.3761957,3.82274043 C79.2554298,3.82044255 79.1931319,3.79822979 79.082834,3.73618723 C78.921983,3.64529362 78.7016426,3.41805957 78.3551745,3.18086809 C78.0087064,2.94469787 77.5121106,2.74120851 76.876366,2.74631489 C75.8425787,2.74759149 74.937217,3.31822979 74.1937277,4.15644255 C73.0744085,5.42257021 72.2088766,7.35380426 71.5940681,9.5436766 C70.9846213,11.7332936 70.6381532,14.1812936 70.6381532,16.4602723 C70.6394298,19.3543149 71.1375574,22.405634 72.146834,24.7923574 C72.6538979,25.9857191 73.2896426,27.0169532 74.0887915,27.7744851 C74.8838553,28.5307404 75.8737277,29.0069106 76.9853872,29.0041021 C77.9063234,29.0094638 78.6924511,28.5698043 79.2633447,27.9286979 C80.1273447,26.9638468 80.6293021,25.5664851 80.9535574,24.1035064" id="Fill-10"></path>
                <path d="M85.740434,18.9639574 L87.3142213,9.77885106 L88.7304766,18.9639574 L85.740434,18.9639574 Z M102.9012,3.17119149 L102.9012,4.53076596 L104.650136,4.53076596 C104.6652,5.6166383 104.696604,8.06846809 104.696604,9.95834043 L104.696604,18.9090638 L100.559668,3.17119149 L94.867583,3.17119149 L94.867583,4.53076596 L97.0766043,4.53076596 L97.0766043,22.2167234 C97.0766043,22.9717021 97.0079234,24.4622553 96.9389872,25.7490638 C96.8999234,26.4864255 96.8606043,27.1579149 96.8340511,27.5988511 L94.867583,27.5988511 L94.867583,27.5993617 L93.6313277,27.5993617 L89.4218809,3.17170213 L87.1464766,3.17170213 L83.9049447,21.2689787 L83.9049447,21.2717872 C83.6286894,22.8971489 83.3105617,24.5952766 83.0629021,25.8833617 C82.9212,26.6174043 82.8022213,27.2174043 82.7258809,27.5993617 L80.7369447,27.5993617 L80.7369447,29.004383 L81.3014553,29.004383 L86.8260511,29.004383 L86.8260511,27.5993617 L84.5585617,27.5993617 C84.7768596,26.069234 85.3173702,22.2351064 85.5216255,20.4157021 L89.0197532,20.4157021 L90.1676681,27.5993617 L88.5203489,27.5993617 L88.5203489,29.004383 L95.9907319,29.004383 L95.9907319,29.0038723 L100.607668,29.0038723 L100.607668,27.5988511 L98.8957532,27.5988511 C98.8743064,27.161234 98.8431574,26.4999574 98.8122638,25.7725532 C98.7563489,24.4895745 98.7022213,23.0005532 98.7022213,22.2167234 L98.7022213,8.43408511 L104.0532,29.0038723 L106.322987,29.0038723 L106.322987,9.95834043 C106.321711,8.95161702 106.390647,7.45595745 106.459328,6.21944681 C106.49737,5.53748936 106.535157,4.93519149 106.561455,4.53076596 L108.835838,4.53076596 L108.835838,3.17119149 L102.9012,3.17119149 Z" id="Fill-12"></path>
                <path d="M20.3904255,56.7798638 C19.9331489,57.4023319 19.3931489,57.7163745 18.8097447,57.8958638 C18.2980851,58.0526298 17.7598723,58.0896511 17.2765532,58.0957787 L17.2765532,44.5378213 C17.7294894,44.5488 18.1625106,44.5830128 18.5697447,44.6953532 C19.1388511,44.8546723 19.6737447,45.1436936 20.2334043,45.7832681 C20.5009787,46.1340766 20.8349362,46.870417 21.0785106,47.8970553 C21.3248936,48.9321191 21.4949362,50.2669277 21.4949362,51.8417362 C21.492383,53.5628426 21.3146809,55.1366298 20.3904255,56.7798638 Z M17.2765532,31.9161191 C17.8982553,31.9385872 18.3619149,32.0008851 18.7331489,32.111183 C19.2034468,32.2513532 19.5529787,32.4579064 19.9829362,32.8222468 C20.4808085,33.2928 20.8096596,34.2377362 20.9592766,35.2439489 C21.1160426,36.2557787 21.1188511,37.300034 21.1175745,37.9539064 C21.1175745,39.2677787 20.7813191,40.3613106 20.3391064,41.1681191 C19.9032766,41.9764596 19.3336596,42.4927149 18.9989362,42.6354383 L18.9976596,42.6354383 L18.9966383,42.6367149 C18.4750213,42.880034 17.8152766,42.9566298 17.2765532,42.9798638 L17.2765532,31.9161191 Z M23.8816596,46.1251404 L23.8844681,46.1274383 C23.0980851,45.1559489 22.3535745,44.5084596 21.5181702,44.0703319 C21.2230213,43.9145872 20.9199574,43.7874383 20.604383,43.6773957 C21.3524681,43.3439489 22.0893191,42.8731404 22.7442128,42.2670128 C23.9687234,41.1333957 24.8975745,39.5001191 24.8960426,37.498417 C24.9090638,34.8637787 23.7637021,33.0282894 22.1564681,31.9633532 C20.5530638,30.8905021 18.5490638,30.5208 16.7120426,30.5182468 L11.357234,30.5182468 L11.357234,31.9061617 L13.6844681,31.9061617 L13.6844681,58.0955234 L11.357234,58.0955234 L11.357234,59.5291404 L11.9214894,59.5291404 L16.7120426,59.5291404 C19.1209787,59.5278638 21.3560426,58.985566 23.0255745,57.6739915 C24.6976596,56.3636936 25.7250638,54.2700766 25.7171489,51.4370553 C25.7148511,49.7039489 25.1830213,47.7165447 23.8816596,46.1251404 Z" id="Fill-14"></path>
                <path d="M29.159566,49.488817 L30.736417,40.2965617 L32.1547149,49.488817 L29.159566,49.488817 Z M46.7270553,35.0556255 L48.4734383,35.0556255 C48.4887574,36.1414979 48.5199064,38.5930723 48.5199064,40.4832 L48.5199064,49.4267745 L44.3921617,33.6960511 L38.7077362,33.6960511 L38.7077362,35.0556255 L40.9129277,35.0556255 L40.9129277,52.741583 C40.9129277,53.4965617 40.8442468,54.9871149 40.775566,56.2739234 C40.7362468,57.0112851 40.6969277,57.6825191 40.6703745,58.1237106 L38.7077362,58.1237106 L38.7077362,58.1242213 L37.0558213,58.1242213 L32.8450979,33.6963064 L30.568417,33.6963064 L27.3240766,51.7938383 L27.3240766,51.7963915 C27.0490979,53.4217532 26.7312255,55.1186043 26.4822894,56.407966 C26.3403319,57.1422638 26.2213532,57.7422638 26.1450128,58.1242213 L23.8527574,58.1242213 L23.8527574,59.5289872 L24.4170128,59.5289872 L30.2479915,59.5289872 L30.2479915,58.1242213 L27.9787149,58.1242213 C28.1965021,56.5940936 28.738034,52.7597106 28.9430553,50.9403064 L32.4442468,50.9403064 L33.5921617,58.1242213 L31.9433106,58.1242213 L31.9433106,59.5289872 L39.418034,59.5289872 L39.418034,59.5284766 L44.4388851,59.5284766 L44.4388851,58.1237106 L42.7297787,58.1237106 C42.7088426,57.6858383 42.6776936,57.0245617 42.646034,56.2971574 C42.5913957,55.014434 42.5370128,53.5251574 42.5370128,52.741583 L42.5370128,38.9609872 L47.8765021,59.5284766 L50.1437362,59.5284766 L50.1437362,40.4832 C50.1437362,39.4774979 50.2126723,37.980817 50.2816085,36.7443064 C50.3193957,36.0620936 50.357183,35.4600511 50.3834809,35.0556255 L52.0494383,35.0556255 L52.0494383,33.6960511 L46.7270553,33.6960511 L46.7270553,35.0556255 Z" id="Fill-16"></path>
                <path d="M60.1284766,42.9036255 L61.2013277,40.6346043 L61.2038809,40.6310298 C61.5891574,39.7813277 62.2649872,38.304817 62.844817,37.0414979 C63.2293277,36.2030298 63.5694128,35.4620936 63.7560511,35.0556255 L66.0917106,35.0556255 L66.0917106,33.6960511 L60.5916255,33.6960511 L60.5916255,35.0556255 L62.0060936,35.0556255 C61.8207319,35.5174979 61.5720511,36.1356255 61.3129021,36.7769872 C60.7915404,38.0676255 60.2180936,39.4711149 60.0689872,39.792817 L57.5939234,44.9249872 L57.5939234,35.0556255 L59.5111149,35.0556255 L59.5111149,33.6960511 L52.4114553,33.6960511 L52.4114553,35.0556255 L54.2469447,35.0556255 L54.2469447,58.1237106 L52.5631149,58.1237106 L52.5631149,58.6933277 L52.5631149,58.9591149 L52.5631149,59.5284766 L58.9869447,59.5284766 L58.9869447,58.1237106 L57.5939234,58.1237106 L57.5939234,48.1392 L57.9906894,47.3712 L61.0974128,58.1237106 L60.6863489,58.1237106 L60.1220936,58.1237106 L60.1220936,59.5284766 L66.2604766,59.5284766 L66.2604766,58.1237106 L64.4819234,58.1237106 L60.1284766,42.9036255 Z" id="Fill-18"></path>
                <path d="M67.0319234,35.0562894 L68.7001787,35.0562894 L68.7001787,58.1297362 L67.1810298,58.1297362 L67.1810298,58.6990979 L67.1810298,58.9597787 L67.1810298,59.5293957 L78.0425617,59.5293957 L78.0425617,50.2036085 L76.585966,50.2036085 L76.585966,50.7732255 C76.5872426,53.2094809 76.1422213,55.1085447 75.4886043,56.3486298 C75.162817,56.9698213 74.7892851,57.4227574 74.4103915,57.7105021 C74.0292,57.9985021 73.6541362,58.1282043 73.2663064,58.1297362 L72.0249447,58.1297362 L72.0249447,46.2681191 C72.0711574,46.2801191 72.1160936,46.2928851 72.1572,46.3066723 C72.342817,46.3679489 72.4725191,46.4585872 72.4829872,46.4756936 L72.5049447,46.4976511 L72.5281787,46.5170553 C72.7697106,46.7103319 73.0081787,47.0828426 73.189966,47.5533957 C73.7542213,48.9637787 73.8022213,51.1117787 73.795583,51.131183 L73.795583,51.7005447 L75.2537106,51.7005447 L75.2537106,39.286417 L73.795583,39.286417 L73.795583,39.856034 C73.7971149,39.8688 73.7825617,40.8288 73.5997532,41.8886298 C73.5091149,42.4204596 73.3740511,42.9780766 73.189966,43.4545021 C73.0056255,43.9316936 72.7669021,44.3156936 72.5205191,44.5204596 L72.5008596,44.537566 L72.4829872,44.5569702 C72.4829872,44.5610553 72.3660511,44.644034 72.1794128,44.6958638 C72.1319234,44.7099064 72.0800936,44.7226723 72.0249447,44.734417 L72.0249447,35.0562894 L73.2663064,35.0562894 C73.651583,35.057566 74.0266468,35.1872681 74.4078383,35.4790979 C74.9774553,35.9136511 75.5350723,36.7334809 75.9349021,37.9138213 C76.3367745,39.0931404 76.585966,40.624034 76.585966,42.4516085 L76.585966,43.0209702 L78.0425617,43.0209702 L78.0425617,33.6954383 L67.0319234,33.6954383 L67.0319234,35.0562894 Z" id="Fill-20"></path>
                <path d="M86.5884,44.4464936 C86.1525702,45.0878553 85.8068681,45.3258128 85.3812511,45.4695574 C85.0618468,45.5757702 84.6597191,45.609217 84.151634,45.6184085 L84.151634,34.9126213 C84.4871234,34.9253872 84.8404851,34.9567915 85.178783,35.0425787 C85.7185277,35.1814723 86.1906128,35.4265787 86.546017,35.9196 L86.5552085,35.932366 L86.5641447,35.9441106 C86.8912085,36.3321957 87.1753787,37.2776426 87.314017,38.1743234 C87.4618468,39.0717702 87.5021872,39.9434298 87.5021872,40.240366 C87.5111234,41.6895574 87.2103574,43.5158553 86.587634,44.445983 L86.5884,44.4464936 Z M93.8376766,52.9986638 C93.7066979,52.9141532 93.5445702,52.8687064 93.3941872,52.8702383 C93.1866128,52.8610468 92.9037191,52.9869191 92.7558894,53.2151745 C92.6052511,53.4383234 92.5600596,53.685983 92.5585277,53.9765362 L92.5585277,54.9158553 C92.5600596,56.1536426 92.3537617,56.9887915 92.0941021,57.4570468 C91.8232085,57.926834 91.5895915,58.0225787 91.3457617,58.0304936 L91.2030383,57.9592596 C91.1044851,57.8556 90.9643149,57.501217 90.8969106,56.9887915 C90.8244,56.4789191 90.799634,55.821217 90.799634,55.0961106 L90.799634,51.6053872 C90.799634,50.7633447 90.7128255,50.0642809 90.4534213,49.4129617 C90.1950383,48.7631745 89.7788681,48.1950894 89.1962298,47.5853872 L89.1898468,47.5790043 L89.1819319,47.572366 C88.4588681,46.857217 87.7480596,46.4678553 87.0967404,46.2278553 C88.2911234,45.6528766 89.1765702,44.913217 89.791634,44.0673447 C90.6505277,42.890834 90.9681447,41.5389191 90.9681447,40.240366 C90.9668681,39.2497277 90.7243149,38.2922809 90.4054213,37.4839404 C90.0862723,36.6830043 89.7012511,36.0373021 89.3305277,35.6206213 L89.3312936,35.6198553 C88.5553787,34.6950894 87.585166,34.1645362 86.5889106,33.8816426 C85.5901021,33.5977277 84.5601447,33.544366 83.5871234,33.5430894 L79.1093362,33.5430894 L79.1093362,34.9024085 L80.8539319,34.9024085 L80.8539319,57.9733021 L79.1093362,57.9733021 L79.1093362,59.3770468 L79.6735915,59.3770468 L86.1998043,59.3770468 L86.1998043,57.9733021 L84.151634,57.9733021 L84.151634,47.0864936 C84.5384426,47.1023234 84.9221872,47.1383234 85.2798894,47.2220681 C85.8124851,47.3464085 86.2776766,47.5601106 86.6639745,47.9410468 C87.1120596,48.3881106 87.355634,48.9921957 87.4840596,49.6802809 C87.6112085,50.3665787 87.6150383,51.1149191 87.6137617,51.784366 L87.6137617,55.2296426 C87.6163149,56.1209617 87.8044851,57.1289617 88.2778468,57.9799404 C88.5152936,58.4027489 88.8306128,58.7893021 89.2442298,59.0734723 C89.6568255,59.3586638 90.1692511,59.529983 90.7360596,59.5287064 C91.279634,59.529983 91.759634,59.4171319 92.1668681,59.1965362 C92.5741021,58.9787489 92.8960596,58.665983 93.1735915,58.3169617 C94.0335064,57.2042809 94.2684,55.4829191 94.2814213,53.9765362 C94.2788681,53.7549191 94.2502723,53.5343234 94.1256766,53.3073447 C94.0621021,53.1957702 93.9686553,53.0829191 93.8376766,52.9986638 Z" id="Fill-22"></path>
                <path d="M96.1840596,58.6219404 L95.9440596,58.6219404 L95.9440596,58.1470468 L96.2489106,58.1470468 C96.4044,58.1470468 96.5744426,58.1769191 96.5744426,58.3753021 C96.5744426,58.6101957 96.3878043,58.6219404 96.1840596,58.6219404 M96.8042298,58.3857702 C96.8042298,58.0990468 96.638017,57.9588766 96.2864426,57.9588766 L95.7145277,57.9588766 L95.7145277,59.451983 L95.9440596,59.451983 L95.9440596,58.8098553 L96.1881447,58.8098553 L96.5915489,59.451983 L96.8379319,59.451983 L96.4148681,58.7917277 C96.6357191,58.7682383 96.8042298,58.6556426 96.8042298,58.3857702" id="Fill-24"></path>
                <path d="M96.2087489,59.7970723 C95.6158979,59.7970723 95.1619404,59.3249872 95.1619404,58.6997106 C95.1619404,58.0874553 95.6158979,57.6166468 96.2087489,57.6166468 C96.795217,57.6166468 97.2489191,58.0874553 97.2489191,58.6997106 C97.2489191,59.3249872 96.795217,59.7970723 96.2087489,59.7970723 M96.2087489,57.4284766 C95.5135149,57.4284766 94.9308766,57.978434 94.9308766,58.6997106 C94.9308766,59.4352851 95.5135149,59.9852426 96.2087489,59.9852426 C96.8988766,59.9852426 97.4787064,59.4352851 97.4787064,58.6997106 C97.4787064,57.978434 96.8988766,57.4284766 96.2087489,57.4284766" id="Fill-26"></path>
            </g>
        </g>
    </g>
</svg>