<?xml version="1.0" encoding="UTF-8"?>
<svg width="157px" height="50px" viewBox="0 0 157 50" version="1.1" xmlns="http://www.w3.org/2000/svg" xmlns:xlink="http://www.w3.org/1999/xlink">
    <!-- Generator: Sketch 48.2 (47327) - http://www.bohemiancoding.com/sketch -->
    <title>BI</title>
    <desc>Created with Sketch.</desc>
    <defs></defs>
    <g id="Homepage" stroke="none" stroke-width="1" fill="none" fill-rule="evenodd" transform="translate(-525.000000, -706.000000)">
        <g id="Featured-in" transform="translate(525.000000, 651.000000)" fill="#CCCCCC">
            <g id="BI" transform="translate(0.000000, 55.000000)">
                <path d="M50.6637438,35.3339957 C50.6637438,38.4405746 52.6841425,39.7925703 55.3432842,40.7174115 L58.2269839,41.7005011 C60.0097254,42.347771 61.0264744,42.9270846 61.0264744,44.4023133 C61.0264744,46.0962705 59.4302409,46.863009 57.1570064,46.863009 C54.8238897,46.863009 52.6452607,46.0631838 50.8319544,44.6781014 L50.8319544,48.0366935 C52.2265015,48.9589591 54.4934983,49.689441 57.1570064,49.689441 C61.2131903,49.689441 64.3039825,47.7878502 64.3039825,44.3440649 C64.3039825,41.6079773 62.8740882,39.9429462 59.7606323,38.8705029 L56.5467491,37.765171 C54.8870987,37.2078492 53.943539,36.654688 53.943539,35.2680206 C53.943539,33.735336 55.4455829,32.999901 57.4555854,32.999901 C59.7907813,32.999901 61.6072065,33.8274635 63.2670648,35.0306684 L63.2670648,31.7354759 C61.6702075,30.7555563 59.6267292,30.2033857 57.3844754,30.2033857 C53.7245949,30.2033857 50.6637438,32.0100753 50.6637438,35.3339957" id="Fill-1"></path>
                <polygon id="Fill-3" points="72.0984046 49.689441 75.0213129 49.689441 75.0213129 30.2033857 72.0984046 30.2033857"></polygon>
                <polygon id="Fill-5" points="12.6659359 49.689441 15.5888442 49.689441 15.5888442 30.2033857 12.6659359 30.2033857"></polygon>
                <path d="M84.7643405,30.2033857 L84.7643405,49.689441 L92.0691732,49.689441 C97.6920675,49.689441 101.327488,45.8796064 101.327488,39.9411978 C101.327488,34.0109704 97.6920675,30.2033857 92.0691732,30.2033857 L84.7643405,30.2033857 Z M87.9928432,33.1222749 L91.9481118,33.1222749 C95.9481075,33.1222749 98.0872564,35.7495002 98.0872564,39.9411978 C98.0872564,44.1036471 95.9481075,46.741099 91.9481118,46.741099 L87.9928432,46.741099 L87.9928432,33.1222749 Z" id="Fill-6"></path>
                <polygon id="Fill-7" points="109.12191 30.2033857 109.12191 49.689441 120.813543 49.689441 120.813543 46.7408945 112.324857 46.7408945 112.324857 40.6961287 119.938421 40.6961287 119.938421 37.8105784 112.324857 37.8105784 112.324857 33.1216613 120.813543 33.1216613 120.813543 30.2033857"></polygon>
                <path d="M130.55657,30.2033857 L130.55657,49.689441 L133.732478,49.689441 L133.732478,41.7834643 L135.9934,41.7834643 L142.531896,49.689441 L146.145415,49.689441 L139.391836,41.660742 C142.361083,41.1811022 143.75364,39.3073368 143.75364,36.0451729 C143.75364,32.2299404 141.244138,30.2033857 137.362647,30.2033857 L130.55657,30.2033857 Z M133.732478,33.0619977 L137.301922,33.0619977 C139.415342,33.0619977 140.60692,34.2378821 140.60692,36.0451729 C140.60692,37.8512365 139.415342,39.0277345 137.301922,39.0277345 L133.732478,39.0277345 L133.732478,33.0619977 Z" id="Fill-8"></path>
                <path d="M43.8436244,5.38971249 C43.8436244,8.64957467 45.8572011,10.0689973 48.5205784,11.0375204 L51.4107357,12.0696975 C53.1969133,12.7475819 54.2030826,13.3605841 54.2030826,14.9093615 C54.2030826,16.684919 52.6127325,17.4911347 50.3387403,17.4911347 C48.0005729,17.4911347 45.8245976,16.652171 44.0070547,15.2004097 L44.0070547,18.7173439 C45.4026091,19.685867 47.6759822,20.4603581 50.3387403,20.4603581 C54.3991164,20.4603581 57.4838631,18.4596578 57.4838631,14.8455028 C57.4838631,11.9730908 56.0550862,10.2311001 52.9371169,9.10108819 L49.7223688,7.93914699 C48.0657799,7.3584834 47.1237859,6.77720578 47.1237859,5.32544447 C47.1237859,3.71158038 48.6179762,2.93749871 50.6317593,2.93749871 C52.9699267,2.93749871 54.7878824,3.80757306 56.4442649,5.06673499 L56.4442649,1.61406876 C54.8532958,0.581277616 52.8071155,0 50.5663459,0 C46.8961803,0 43.8436244,1.90409354 43.8436244,5.38971249" id="Fill-9"></path>
                <path d="M143.222506,5.38950781 C143.222506,8.64834661 145.23632,10.0687926 147.898912,11.0375204 L150.789526,12.0696975 C152.575318,12.7469678 153.582121,13.3611982 153.582121,14.9091568 C153.582121,16.6841003 151.991128,17.4911347 149.717927,17.4911347 C147.379724,17.4911347 145.203716,16.652171 143.384701,15.1997956 L143.384701,18.7171392 C144.781721,19.685253 147.053684,20.4603581 149.717927,20.4603581 C153.777126,20.4603581 156.862745,18.4588391 156.862745,14.8448888 C156.862745,11.9728862 155.433121,10.2296673 152.315517,9.10047417 L149.100721,7.93914699 C147.444107,7.35786937 146.502718,6.77720578 146.502718,5.32483044 C146.502718,3.71137571 147.997137,2.93688469 150.009093,2.93688469 C152.348534,2.93688469 154.167136,3.80798241 155.823337,5.06653032 L155.823337,1.61406876 C154.231932,0.58066359 152.186133,0 149.94533,0 C146.275108,0 143.222506,1.90409354 143.222506,5.38950781" id="Fill-10"></path>
                <path d="M123.736451,5.38950781 C123.736451,8.64834661 125.750028,10.0687926 128.413199,11.0375204 L131.303562,12.0696975 C133.089534,12.7469678 134.096322,13.3611982 134.096322,14.9091568 C134.096322,16.6841003 132.504115,17.4911347 130.232186,17.4911347 C127.893606,17.4911347 125.718043,16.652171 123.899056,15.1997956 L123.899056,18.7171392 C125.294817,19.685253 127.568603,20.4603581 130.232186,20.4603581 C134.291324,20.4603581 137.37669,18.4588391 137.37669,14.8448888 C137.37669,11.9728862 135.946675,10.2296673 132.829737,9.10047417 L129.61437,7.93914699 C127.958607,7.35786937 127.017644,6.77720578 127.017644,5.32483044 C127.017644,3.71137571 128.510803,2.93688469 130.523348,2.93688469 C132.862753,2.93688469 134.681122,3.80798241 136.337504,5.06653032 L136.337504,1.61406876 C134.746122,0.58066359 132.699942,0 130.460204,0 C126.789626,0 123.736451,1.90409354 123.736451,5.38950781" id="Fill-11"></path>
                <polygon id="Fill-12" points="104.250396 0 104.250396 19.4860553 115.942029 19.4860553 115.942029 16.5378557 107.453695 16.5378557 107.453695 10.4927081 115.066749 10.4927081 115.066749 7.60730897 107.453695 7.60730897 107.453695 2.91840961 115.942029 2.91840961 115.942029 0"></polygon>
                <path d="M0,0 L0,19.4860553 L7.23605664,19.4860553 C11.1770918,19.4860553 13.6402387,17.5497479 13.6402387,13.9005533 C13.6402387,11.8374399 12.3476246,10.0287437 10.5612072,9.42591203 C11.9469475,8.91748039 13.0243541,7.39399697 13.0243541,5.29948404 C13.0243541,1.80909881 10.5612072,0 6.61958515,0 L0,0 Z M3.10994312,2.85716039 L6.58906482,2.85716039 C8.77557239,2.85716039 9.94590957,3.64979848 9.94590957,5.49009559 C9.94590957,7.33079526 8.77557239,8.1882453 6.58906482,8.1882453 L3.10994312,8.1882453 L3.10994312,2.85716039 Z M3.10994312,10.9167882 L7.17403777,10.9167882 C9.33002501,10.9167882 10.499384,11.9962493 10.499384,13.7731435 C10.499384,15.518638 9.33002501,16.6290962 7.17403777,16.6290962 L3.10994312,16.6290962 L3.10994312,10.9167882 Z" id="Fill-13"></path>
                <polygon id="Fill-14" points="66.252588 19.4860553 69.1754963 19.4860553 69.1754963 0 66.252588 0"></polygon>
                <path d="M33.7281336,0 L33.7281336,11.1791956 C33.7281336,14.8641354 32.1439637,16.5816351 29.2290829,16.5816351 C26.3142022,16.5816351 24.7300323,14.8641354 24.7300323,11.1791956 L24.7300323,0 L21.4346608,0 L21.4346608,11.5238046 C21.4346608,16.8000855 24.6030007,19.4860553 29.2290829,19.4860553 C33.8863694,19.4860553 37.0235051,16.8000855 37.0235051,11.5541065 L37.0235051,0 L33.7281336,0 Z" id="Fill-15"></path>
                <polygon id="Fill-16" points="92.3113472 0.308670078 92.3113472 12.9952972 78.9185239 0 78.9185239 20.1512781 82.0979207 20.1512781 82.0979207 7.24472859 95.4816709 20.4603581 95.4816709 0.308670078"></polygon>
                <polygon id="Fill-17" points="25.3318719 49.396804 28.5110536 49.396804 28.5110536 37.1028742 41.8950189 49.689441 41.8950189 30.4954275 38.7239618 30.4954275 38.7239618 42.5792539 25.3318719 30.2033857"></polygon>
            </g>
        </g>
    </g>
</svg>