<?xml version="1.0" encoding="UTF-8"?>
<svg xmlns="http://www.w3.org/2000/svg" xmlns:xlink="http://www.w3.org/1999/xlink" width="250pt" height="71pt" viewBox="0 0 250 71" version="1.1">
<g id="surface1">
<path style=" stroke:none;fill-rule:evenodd;fill:rgb(100%,100%,100%);fill-opacity:1;" d="M 0.167969 0.167969 L 249.832031 0.167969 L 249.832031 70.832031 L 0.167969 70.832031 Z M 0.167969 0.167969 "/>
<path style=" stroke:none;fill-rule:nonzero;fill:rgb(80%,80%,80%);fill-opacity:1;" d="M 89.265625 18.882812 L 106.089844 18.882812 L 109.582031 36.992188 L 113.386719 18.882812 L 129.765625 18.882812 L 129.765625 25.527344 L 126.851562 25.527344 L 126.851562 44.289062 L 129.765625 44.289062 L 129.765625 50.933594 L 115.589844 50.933594 L 115.589844 44.289062 L 118 44.289062 L 118 25.847656 L 111.910156 50.933594 L 104.570312 50.933594 L 98.75 25.527344 L 98.75 44.289062 L 101.238281 44.289062 L 101.238281 50.933594 L 89.265625 50.933594 L 89.265625 44.289062 L 92.128906 44.289062 L 92.128906 25.527344 L 89.265625 25.527344 L 89.265625 18.882812 "/>
<path style=" stroke:none;fill-rule:nonzero;fill:rgb(80%,80%,80%);fill-opacity:1;" d="M 178.691406 44.289062 L 180.617188 44.289062 L 180.617188 50.933594 L 170.363281 50.933594 L 170.363281 35.921875 C 170.363281 34.097656 169.550781 33.320312 168.257812 33.320312 C 166.765625 33.320312 165.472656 34.808594 165.40625 36.890625 L 165.40625 44.289062 L 167.75 44.289062 L 167.75 50.933594 L 155.238281 50.933594 L 155.238281 44.289062 L 157.121094 44.289062 L 157.121094 33.671875 L 155.238281 33.671875 L 155.238281 27.023438 L 164.554688 27.023438 L 164.554688 31.46875 C 166.261719 28.550781 168.867188 26.511719 172.328125 26.511719 C 176.855469 26.511719 178.582031 29.152344 178.691406 33.394531 L 178.691406 44.289062 "/>
<path style=" stroke:none;fill-rule:nonzero;fill:rgb(80%,80%,80%);fill-opacity:1;" d="M 195.546875 36.296875 C 195.671875 34.546875 195.058594 32.386719 192.726562 32.386719 C 190.039062 32.386719 189.949219 35.261719 189.949219 36.296875 Z M 203.515625 42.71875 C 202.742188 48.492188 198.738281 51.535156 192.816406 51.535156 C 186.636719 51.535156 181.21875 48.394531 181.21875 39.074219 C 181.21875 33.140625 183.8125 26.511719 192.5 26.511719 C 201.1875 26.511719 204.285156 32.691406 203.828125 40.59375 L 189.730469 40.59375 C 189.730469 42.441406 190.027344 45.71875 192.941406 45.71875 C 195.355469 45.71875 195.929688 43.59375 196.066406 42.71875 L 203.515625 42.71875 "/>
<path style=" stroke:none;fill-rule:nonzero;fill:rgb(80%,80%,80%);fill-opacity:1;" d="M 138.945312 39.023438 C 138.945312 40.511719 138.945312 45.082031 142.253906 45.082031 C 145.566406 45.082031 145.566406 40.511719 145.566406 39.023438 C 145.566406 37.539062 145.566406 32.96875 142.253906 32.96875 C 138.945312 32.96875 138.945312 37.539062 138.945312 39.023438 Z M 130.4375 39.023438 C 130.4375 31.414062 134.289062 26.511719 142.253906 26.511719 C 150.226562 26.511719 154.078125 31.414062 154.078125 39.023438 C 154.078125 46.636719 150.226562 51.535156 142.253906 51.535156 C 134.285156 51.535156 130.4375 46.636719 130.4375 39.023438 "/>
<path style=" stroke:none;fill-rule:nonzero;fill:rgb(80%,80%,80%);fill-opacity:1;" d="M 216.140625 27.023438 L 216.140625 33.671875 L 214.257812 33.671875 L 217.4375 44.011719 L 220.390625 33.671875 L 218.421875 33.671875 L 218.421875 27.023438 L 229.679688 27.023438 L 229.679688 33.671875 L 227.710938 33.671875 L 221.398438 51.316406 C 218.679688 58.945312 215.734375 61.042969 210.371094 61.042969 C 208.132812 61.042969 206.738281 60.675781 205.527344 60.398438 L 205.527344 53.792969 C 206.8125 54.070312 207.976562 54.289062 209.09375 54.289062 C 210.648438 54.289062 211.878906 53.820312 212.507812 52.359375 C 212.683594 51.992188 212.652344 52.042969 212.792969 51.675781 L 206.207031 33.671875 L 204.238281 33.671875 L 204.238281 27.023438 L 216.140625 27.023438 "/>
<path style=" stroke:none;fill-rule:nonzero;fill:rgb(80%,80%,80%);fill-opacity:1;" d="M 24.566406 34.917969 C 24.570312 39.96875 27.917969 45.40625 35.253906 45.40625 L 44.40625 45.40625 C 44.800781 45.40625 45.140625 45.074219 45.140625 44.667969 L 45.140625 25.132812 C 45.136719 23.980469 45.714844 23.074219 46.644531 22.769531 C 47.546875 22.472656 48.539062 22.847656 49.144531 23.757812 C 49.144531 23.757812 62.082031 45.195312 62.082031 45.199219 C 62.230469 45.414062 62.410156 45.484375 62.515625 45.445312 C 62.640625 45.402344 62.765625 45.195312 62.765625 44.792969 L 62.765625 25.136719 C 62.765625 23.984375 63.339844 23.078125 64.269531 22.773438 C 65.171875 22.480469 66.160156 22.855469 66.769531 23.765625 C 69.34375 28.097656 79.625 45.070312 79.703125 45.203125 C 79.839844 45.394531 80.019531 45.496094 80.164062 45.449219 C 80.324219 45.394531 80.429688 45.148438 80.429688 44.800781 L 80.429688 18.878906 L 76.875 18.878906 L 76.875 34 C 76.875 34 74.523438 29.90625 70.519531 22.800781 C 66.59375 15.859375 59.195312 18.738281 59.195312 24.710938 L 59.195312 33.996094 C 59.195312 33.996094 56.902344 29.898438 52.898438 22.796875 C 48.976562 15.851562 41.5625 18.730469 41.5625 24.707031 L 41.5625 40.699219 C 41.5625 41.277344 41.148438 41.789062 40.542969 41.789062 L 35.691406 41.789062 C 25.199219 41.804688 26.136719 27.957031 35.066406 27.941406 C 39.035156 27.9375 40.429688 27.941406 40.429688 27.941406 L 40.429688 24.320312 L 34.875 24.320312 C 27.785156 24.332031 24.5625 29.820312 24.566406 34.917969 "/>
<path style=" stroke:none;fill-rule:nonzero;fill:rgb(80%,80%,80%);fill-opacity:1;" d="M 82.152344 18.878906 L 82.152344 44.796875 C 82.15625 45.960938 81.59375 46.863281 80.683594 47.152344 C 79.804688 47.4375 78.867188 47.074219 78.257812 46.191406 C 78.152344 46.015625 67.867188 29.039062 65.320312 24.730469 C 65.148438 24.472656 64.925781 24.433594 64.792969 24.476562 C 64.601562 24.539062 64.492188 24.785156 64.492188 25.132812 L 64.492188 44.792969 C 64.496094 46.1875 63.746094 46.925781 63.035156 47.152344 C 62.171875 47.433594 61.242188 47.0625 60.636719 46.183594 C 60.636719 46.183594 47.699219 24.730469 47.699219 24.722656 C 47.527344 24.46875 47.304688 24.429688 47.167969 24.472656 C 46.976562 24.535156 46.867188 24.773438 46.867188 25.125 L 46.867188 44.667969 C 46.867188 46.066406 45.761719 47.191406 44.40625 47.191406 L 35.253906 47.191406 C 26.730469 47.191406 22.84375 40.832031 22.839844 34.921875 C 22.835938 28.773438 26.964844 22.542969 34.871094 22.535156 L 40.425781 22.535156 L 40.425781 18.875 L 35.5625 18.875 C 13.75 18.875 13.960938 50.894531 35.855469 50.910156 L 44.414062 50.910156 C 48.09375 50.910156 50.460938 48.667969 50.457031 44.515625 L 50.457031 36.402344 C 50.457031 36.402344 55.253906 44.601562 57.144531 47.816406 C 60.34375 53.277344 68.097656 52.203125 68.078125 45.371094 L 68.078125 36.40625 C 68.078125 36.40625 72.875 44.605469 74.761719 47.820312 C 77.96875 53.28125 85.71875 52.207031 85.699219 45.375 L 85.699219 18.878906 L 82.152344 18.878906 "/>
</g>
</svg>
