<?xml version="1.0" encoding="UTF-8"?>
<svg width="167px" height="40px" viewBox="0 0 167 40" version="1.1" xmlns="http://www.w3.org/2000/svg" xmlns:xlink="http://www.w3.org/1999/xlink">
    <!-- Generator: Sketch 48.2 (47327) - http://www.bohemiancoding.com/sketch -->
    <title>Fortune</title>
    <desc>Created with Sketch.</desc>
    <defs>
        <polygon id="path-1" points="0.286615385 0.713076923 17.5112308 0.713076923 17.5112308 39.2304618 0.286615385 39.2304618"></polygon>
        <polygon id="path-3" points="0 0.371384615 15.406 0.371384615 15.406 37.8113846 0 37.8113846"></polygon>
        <polygon id="path-5" points="0.422384615 0.371384615 15.8284615 0.371384615 15.8284615 37.8113846 0.422384615 37.8113846"></polygon>
    </defs>
    <g id="Homepage" stroke="none" stroke-width="1" fill="none" fill-rule="evenodd" transform="translate(-351.000000, -711.000000)">
        <g id="Featured-in" transform="translate(351.000000, 651.000000)">
            <g id="Fortune" transform="translate(0.846154, 60.000000)">
                <g id="Group-3" transform="translate(21.538462, 0.056385)">
                    <mask id="mask-2" fill="white">
                        <use xlink:href="#path-1"></use>
                    </mask>
                    <g id="Clip-2"></g>
                    <path d="M9.05969231,7.024 L9.38046154,7.024 C9.70123077,7.13092308 10.3435385,7.55861538 10.7712308,7.98707692 L11.5204615,8.73553846 L11.5204615,19.8601538 L11.5204615,30.9855385 L10.9850769,31.7347692 C10.6643077,32.1624615 10.1296923,32.5901538 9.80892308,32.6970769 C9.48738462,32.8047692 9.05969231,32.9109231 8.84584615,32.9109231 C8.31046154,32.9109231 7.45507692,32.2693846 6.91969231,31.5209231 L6.38507692,30.7716923 L6.38507692,19.9678462 C6.38507692,9.59169231 6.38507692,9.05707692 6.81276923,8.41476923 C7.34738462,7.55861538 8.31046154,7.024 9.05969231,7.024 M8.95276923,0.712461538 C5.74276923,0.712461538 2.64046154,2.42476923 1.03584615,5.74092308 L0.286615385,7.23784615 L0.286615385,19.9678462 L0.286615385,32.6970769 L1.03584615,34.1947692 C2.21276923,36.5486154 3.92430769,38.0455385 6.492,38.9009231 C8.41815385,39.5432308 11.4135385,39.2216923 13.232,38.1532308 C14.5158462,37.5109231 16.2273846,35.5855385 16.8696923,34.1947692 L17.5112308,32.9109231 L17.5112308,19.9678462 L17.5112308,7.024 L16.8696923,5.63323077 C15.2643077,2.31707692 12.162,0.712461538 8.95276923,0.712461538" id="Fill-1" fill="#CCCCCC" mask="url(#mask-2)"></path>
                </g>
                <path d="M103.134923,38.8509231 C100.459538,37.8878462 98.748,36.1763077 97.678,33.6093846 C97.3572308,32.6470769 97.2510769,31.1486154 97.2510769,17.0286154 L97.2510769,1.41092308 L100.353385,1.304 L103.455692,1.19707692 L103.455692,16.1732308 C103.455692,27.7255385 103.562615,31.2563077 103.776462,31.684 C103.884154,32.0047692 104.418769,32.4324615 104.846462,32.6470769 C105.809538,33.1816923 106.664923,33.074 107.628,32.1116923 L108.270308,31.4693846 L108.270308,16.3870769 L108.270308,1.304 L111.372615,1.41092308 L114.474923,1.51784615 L114.474923,17.1355385 C114.474923,32.4324615 114.474923,32.7532308 114.047231,34.0370769 C113.405692,35.8555385 111.586462,37.674 109.768,38.6370769 C107.841846,39.3855385 105.060308,39.4924615 103.134923,38.8509231" id="Fill-4" fill="#CCCCCC"></path>
                <g id="Group-8" transform="translate(0.000000, 0.825615)">
                    <mask id="mask-4" fill="white">
                        <use xlink:href="#path-3"></use>
                    </mask>
                    <g id="Clip-7"></g>
                    <polygon id="Fill-6" fill="#CCCCCC" mask="url(#mask-4)" points="-0.000153846154 19.1983077 -0.000153846154 0.371384615 7.70292308 0.371384615 15.406 0.371384615 15.406 3.58061538 15.406 6.78984615 10.9129231 6.78984615 6.41907692 6.78984615 6.41907692 11.1752308 6.41907692 15.5613846 9.20061538 15.5613846 11.9829231 15.5613846 12.0890769 18.6636923 12.196 21.7652308 9.30830769 21.7652308 6.41907692 21.7652308 6.41907692 29.7883077 6.41907692 37.8113846 3.20984615 37.8113846 -0.000153846154 37.8113846"></polygon>
                </g>
                <path d="M47.8228462,20.0239231 L47.8228462,1.197 L52.6374615,1.197 C57.8797692,1.197 59.2705385,1.41084615 61.089,2.48084615 C62.4797692,3.33623077 63.8705385,4.94084615 64.6197692,6.43853846 C65.2613077,7.72238462 65.2613077,7.93623077 65.2613077,12.6431538 C65.369,16.6008462 65.2613077,17.7777692 64.9405385,18.9539231 C64.5128462,20.6654615 63.7636154,22.0562308 62.6943846,23.1262308 L61.9451538,23.8746923 L63.9774615,30.8277692 C65.0474615,34.6785385 66.1174615,37.9954615 66.1174615,38.2093077 C66.2243846,38.7439231 66.2243846,38.7439231 62.9074615,38.7439231 L59.5913077,38.7439231 L58.6282308,35.0000769 C57.6651538,31.2562308 55.2051538,21.9493077 54.9905385,21.2008462 C54.8836154,20.8800769 55.0982308,20.7731538 55.5259231,20.6654615 C56.489,20.4516154 58.0936154,19.0616154 58.5213077,18.0985385 C58.7359231,17.5639231 58.8428462,16.1731538 58.8428462,13.1777692 L58.8428462,9.00623077 L58.2005385,8.36392308 C57.5582308,7.72238462 57.4520769,7.72238462 55.7397692,7.72238462 L54.0282308,7.72238462 L54.0282308,23.2331538 L54.0282308,38.7439231 L50.9251538,38.7439231 L47.8228462,38.7439231 L47.8228462,20.0239231 Z" id="Fill-9" fill="#CCCCCC"></path>
                <path d="M77.993,38.6368462 C77.993,38.5299231 77.993,31.5768462 77.8860769,23.1260769 L77.7791538,7.82915385 L74.9968462,7.72223077 L72.2160769,7.61530769 L72.2160769,4.40607692 L72.2160769,1.19684615 L80.9883846,1.19684615 L89.7614615,1.19684615 L89.7614615,4.40607692 L89.7614615,7.61530769 L86.9799231,7.61530769 L84.1976154,7.61530769 L84.1976154,23.1260769 L84.1976154,38.6368462 L81.0953077,38.6368462 C79.3837692,38.7445385 77.993,38.7445385 77.993,38.6368462" id="Fill-11" fill="#CCCCCC"></path>
                <path d="M122.926846,20.0239231 L122.926846,1.197 L126.136846,1.197 L129.346846,1.197 L129.559923,2.05315385 C129.667615,2.48084615 130.736846,5.90392308 131.914538,9.54084615 C133.090692,13.1777692 134.374538,17.1354615 134.696077,18.5262308 C135.123,19.8100769 135.551462,20.8800769 135.658385,20.8800769 C135.765308,20.8800769 135.872231,17.1354615 135.872231,11.1454615 L135.872231,1.41084615 L138.974538,1.30392308 L142.077615,1.197 L142.077615,20.0239231 L142.077615,38.8508462 L138.547615,38.8508462 L135.016846,38.8508462 L134.374538,36.7116154 C134.053769,35.5346923 133.412231,33.5023846 132.983769,32.2185385 C132.556077,30.9346923 131.593,27.9400769 130.951462,25.5862308 C130.202231,23.2323846 129.559923,21.307 129.453,21.307 C129.346846,21.307 129.239154,25.2654615 129.239154,30.0793077 L129.239154,38.8508462 L126.136846,38.8508462 L122.926846,38.8508462 L122.926846,20.0239231 Z" id="Fill-13" fill="#CCCCCC"></path>
                <g id="Group-17" transform="translate(150.000000, 0.825615)">
                    <mask id="mask-6" fill="white">
                        <use xlink:href="#path-5"></use>
                    </mask>
                    <g id="Clip-16"></g>
                    <polygon id="Fill-15" fill="#CCCCCC" mask="url(#mask-6)" points="0.422384615 19.1983077 0.422384615 0.371384615 8.12623077 0.371384615 15.8285385 0.371384615 15.8285385 3.58061538 15.8285385 6.78984615 11.2285385 6.78984615 6.62776923 6.78984615 6.73469231 11.0683077 6.84161538 15.3475385 9.73084615 15.3475385 12.6185385 15.3475385 12.6185385 18.5567692 12.6185385 21.7652308 9.62315385 21.7652308 6.62776923 21.7652308 6.62776923 26.5790769 6.62776923 31.3929231 11.2285385 31.3929231 15.8285385 31.3929231 15.8285385 34.6021538 15.8285385 37.8113846 8.12623077 37.8113846 0.422384615 37.8113846"></polygon>
                </g>
            </g>
        </g>
    </g>
</svg>